<?xml version="1.0" encoding="UTF-8" standalone="no"?><!DOCTYPE svg PUBLIC "-//W3C//DTD SVG 1.1//EN" "http://www.w3.org/Graphics/SVG/1.1/DTD/svg11.dtd"><!-- Generated by graphviz version 2.40.1 (20161225.0304)
 --><!-- Title: G Pages: 1 --><svg xmlns="http://www.w3.org/2000/svg" xmlns:xlink="http://www.w3.org/1999/xlink" width="177pt" height="503pt" viewBox="0.00 0.00 176.65 502.80">
<g id="graph0" class="graph" transform="scale(1 1) rotate(0) translate(4 498.8)">
<title>G</title>
<polygon fill="#ffffff" stroke="transparent" points="-4,4 -4,-498.8 172.6469,-498.8 172.6469,4 -4,4"/>
<text text-anchor="middle" x="84.3235" y="-8.2" font-family="Times,serif" font-size="14.00" fill="#000000"></text>
<!-- M0 -->
<g id="node1" class="node">
<title>M0</title>
<polygon fill="none" stroke="#000000" points="139.5,-150.8 39.5,-150.8 39.5,-96.8 139.5,-96.8 139.5,-150.8"/>
<polygon fill="#add8e6" stroke="transparent" points="49.5,-124.8 49.5,-144.8 100.5,-144.8 100.5,-124.8 49.5,-124.8"/>
<text text-anchor="start" x="51.2798" y="-130.2" font-family="Times,serif" font-size="14.00" fill="#000000">Lit, Add</text>
<polygon fill="#f5f5dc" stroke="transparent" points="102.5,-124.8 102.5,-144.8 129.5,-144.8 129.5,-124.8 102.5,-124.8"/>
<text text-anchor="start" x="104.3401" y="-130.2" font-family="Times,serif" font-size="14.00" fill="#000000">eval</text>
<text text-anchor="start" x="79.7777" y="-108.2" font-family="Times,serif" font-size="14.00" fill="#000000">M0</text>
</g>
<!-- MATHDOMAIN -->
<g id="node7" class="node">
<title>MATHDOMAIN</title>
<ellipse fill="none" stroke="#000000" cx="89.5" cy="-42.8" rx="79.2942" ry="18"/>
<text text-anchor="middle" x="89.5" y="-38.6" font-family="Times,serif" font-size="14.00" fill="#000000">MATHDOMAIN</text>
</g>
<!-- M0&#45;&gt;MATHDOMAIN -->
<g id="edge4" class="edge">
<title>M0-&gt;MATHDOMAIN</title>
<path fill="none" stroke="#000000" d="M89.5,-96.3771C89.5,-88.3353 89.5,-79.5228 89.5,-71.4091"/>
<polygon fill="#000000" stroke="#000000" points="93.0001,-71.2688 89.5,-61.2688 86.0001,-71.2689 93.0001,-71.2688"/>
</g>
<!-- M1 -->
<g id="node2" class="node">
<title>M1</title>
<polygon fill="none" stroke="#000000" points="116.5,-240.8 62.5,-240.8 62.5,-186.8 116.5,-186.8 116.5,-240.8"/>
<polygon fill="#add8e6" stroke="transparent" points="74.5,-214.8 74.5,-234.8 99.5,-234.8 99.5,-214.8 74.5,-214.8"/>
<text text-anchor="start" x="76.1087" y="-220.2" font-family="Times,serif" font-size="14.00" fill="#000000">Sub</text>
<polygon fill="#f5f5dc" stroke="transparent" points="101.5,-214.8 101.5,-234.8 105.5,-234.8 105.5,-214.8 101.5,-214.8"/>
<text text-anchor="start" x="80.2777" y="-198.2" font-family="Times,serif" font-size="14.00" fill="#000000">M1</text>
</g>
<!-- M1&#45;&gt;M0 -->
<g id="edge3" class="edge">
<title>M1-&gt;M0</title>
<path fill="none" stroke="#000000" d="M89.5,-186.797C89.5,-178.7723 89.5,-169.8335 89.5,-161.2691"/>
<polygon fill="#000000" stroke="#000000" points="93.0001,-161.0949 89.5,-151.095 86.0001,-161.095 93.0001,-161.0949"/>
</g>
<!-- D1 -->
<g id="node3" class="node">
<title>D1</title>
<polygon fill="none" stroke="#000000" points="89,-330.8 0,-330.8 0,-276.8 89,-276.8 89,-330.8"/>
<polygon fill="#add8e6" stroke="transparent" points="10.5,-304.8 10.5,-324.8 14.5,-324.8 14.5,-304.8 10.5,-304.8"/>
<polygon fill="#f5f5dc" stroke="transparent" points="16.5,-304.8 16.5,-324.8 79.5,-324.8 79.5,-304.8 16.5,-304.8"/>
<text text-anchor="start" x="18.4362" y="-311.2" font-family="Times,serif" font-size="14.00" fill="#000000">multBy</text>
<text text-anchor="start" x="60.4446" y="-311.2" font-family="Times,serif" baseline-shift="sub" font-size="14.00" fill="#000000">BP</text>
<text text-anchor="start" x="36.4467" y="-288.2" font-family="Times,serif" font-size="14.00" fill="#000000">D1</text>
</g>
<!-- D1&#45;&gt;M1 -->
<g id="edge2" class="edge">
<title>D1-&gt;M1</title>
<path fill="none" stroke="#000000" d="M58.0015,-276.797C62.1902,-268.4196 66.8771,-259.0459 71.329,-250.1421"/>
<polygon fill="#000000" stroke="#000000" points="74.5108,-251.6045 75.8525,-241.095 68.2498,-248.474 74.5108,-251.6045"/>
</g>
<!-- D2 -->
<g id="node4" class="node">
<title>D2</title>
<polygon fill="none" stroke="#000000" points="164,-330.8 107,-330.8 107,-276.8 164,-276.8 164,-330.8"/>
<polygon fill="#add8e6" stroke="transparent" points="117.5,-304.8 117.5,-324.8 148.5,-324.8 148.5,-304.8 117.5,-304.8"/>
<text text-anchor="start" x="119.3871" y="-310.2" font-family="Times,serif" font-size="14.00" fill="#000000">Mult</text>
<polygon fill="#f5f5dc" stroke="transparent" points="150.5,-304.8 150.5,-324.8 154.5,-324.8 154.5,-304.8 150.5,-304.8"/>
<text text-anchor="start" x="127.4467" y="-288.2" font-family="Times,serif" font-size="14.00" fill="#000000">D2</text>
</g>
<!-- D2&#45;&gt;M1 -->
<g id="edge6" class="edge">
<title>D2-&gt;M1</title>
<path fill="none" stroke="#000000" d="M121.6985,-276.797C117.4167,-268.4196 112.6257,-259.0459 108.0748,-250.1421"/>
<polygon fill="#000000" stroke="#000000" points="111.1185,-248.4064 103.4508,-241.095 104.8854,-251.5922 111.1185,-248.4064"/>
</g>
<!-- D1D2 -->
<g id="node5" class="node">
<title>D1D2</title>
<polygon fill="none" stroke="#000000" points="119.5,-404.8 59.5,-404.8 59.5,-366.8 119.5,-366.8 119.5,-404.8"/>
<polygon fill="#add8e6" stroke="transparent" points="69.5,-394.8 69.5,-398.8 88.5,-398.8 88.5,-394.8 69.5,-394.8"/>
<polygon fill="#f5f5dc" stroke="transparent" points="90.5,-394.8 90.5,-398.8 109.5,-398.8 109.5,-394.8 90.5,-394.8"/>
<text text-anchor="start" x="72.3934" y="-378.2" font-family="Times,serif" font-size="14.00" fill="#000000">D1D2</text>
</g>
<!-- D1D2&#45;&gt;D1 -->
<g id="edge7" class="edge">
<title>D1D2-&gt;D1</title>
<path fill="none" stroke="#000000" d="M79.063,-366.7814C74.7011,-358.8331 69.4804,-349.3198 64.4342,-340.1245"/>
<polygon fill="#000000" stroke="#000000" points="67.3637,-338.1876 59.4843,-331.1048 61.227,-341.5554 67.3637,-338.1876"/>
</g>
<!-- D1D2&#45;&gt;D2 -->
<g id="edge5" class="edge">
<title>D1D2-&gt;D2</title>
<path fill="none" stroke="#000000" d="M100.1689,-366.7814C104.6742,-358.7503 110.0758,-349.1215 115.284,-339.8372"/>
<polygon fill="#000000" stroke="#000000" points="118.3426,-341.5387 120.1827,-331.1048 112.2376,-338.1139 118.3426,-341.5387"/>
</g>
<!-- D3 -->
<g id="node6" class="node">
<title>D3</title>
<polygon fill="none" stroke="#000000" points="124,-494.8 55,-494.8 55,-440.8 124,-440.8 124,-494.8"/>
<polygon fill="#add8e6" stroke="transparent" points="65.5,-468.8 65.5,-488.8 69.5,-488.8 69.5,-468.8 65.5,-468.8"/>
<polygon fill="#f5f5dc" stroke="transparent" points="71.5,-468.8 71.5,-488.8 114.5,-488.8 114.5,-468.8 71.5,-468.8"/>
<text text-anchor="start" x="73.1718" y="-474.2" font-family="Times,serif" font-size="14.00" fill="#000000">prettyp</text>
<text text-anchor="start" x="81.4467" y="-452.2" font-family="Times,serif" font-size="14.00" fill="#000000">D3</text>
</g>
<!-- D3&#45;&gt;D1D2 -->
<g id="edge1" class="edge">
<title>D3-&gt;D1D2</title>
<path fill="none" stroke="#000000" d="M89.5,-440.4952C89.5,-432.3056 89.5,-423.2924 89.5,-414.9865"/>
<polygon fill="#000000" stroke="#000000" points="93.0001,-414.959 89.5,-404.959 86.0001,-414.9591 93.0001,-414.959"/>
</g>
</g>
</svg>