<?xml version="1.0" encoding="UTF-8" standalone="no"?><!DOCTYPE svg PUBLIC "-//W3C//DTD SVG 1.1//EN" "http://www.w3.org/Graphics/SVG/1.1/DTD/svg11.dtd"><!-- Generated by graphviz version 2.40.1 (20161225.0304)
 --><!-- Title: G Pages: 1 --><svg xmlns="http://www.w3.org/2000/svg" xmlns:xlink="http://www.w3.org/1999/xlink" width="231pt" height="834pt" viewBox="0.00 0.00 230.69 833.80">
<g id="graph0" class="graph" transform="scale(1 1) rotate(0) translate(4 829.8)">
<title>G</title>
<polygon fill="#ffffff" stroke="transparent" points="-4,4 -4,-829.8 226.6908,-829.8 226.6908,4 -4,4"/>
<text text-anchor="middle" x="111.3454" y="-8.2" font-family="Times,serif" font-size="14.00" fill="#000000"></text>
<!-- M0 -->
<g id="node1" class="node">
<title>M0</title>
<polygon fill="none" stroke="#000000" points="164,-151.8 64,-151.8 64,-97.8 164,-97.8 164,-151.8"/>
<polygon fill="#add8e6" stroke="transparent" points="74,-125.8 74,-145.8 125,-145.8 125,-125.8 74,-125.8"/>
<text text-anchor="start" x="75.7798" y="-131.2" font-family="Times,serif" font-size="14.00" fill="#000000">Lit, Add</text>
<polygon fill="#f5f5dc" stroke="transparent" points="127,-125.8 127,-145.8 154,-145.8 154,-125.8 127,-125.8"/>
<text text-anchor="start" x="128.8401" y="-131.2" font-family="Times,serif" font-size="14.00" fill="#000000">eval</text>
<text text-anchor="start" x="104.2777" y="-109.2" font-family="Times,serif" font-size="14.00" fill="#000000">M0</text>
</g>
<!-- MATHDOMAIN -->
<g id="node10" class="node">
<title>MATHDOMAIN</title>
<ellipse fill="none" stroke="#000000" cx="114" cy="-42.8" rx="79.2942" ry="18"/>
<text text-anchor="middle" x="114" y="-38.6" font-family="Times,serif" font-size="14.00" fill="#000000">MATHDOMAIN</text>
</g>
<!-- M0&#45;&gt;MATHDOMAIN -->
<g id="edge3" class="edge">
<title>M0-&gt;MATHDOMAIN</title>
<path fill="none" stroke="#000000" d="M114,-97.4952C114,-89.1091 114,-79.8593 114,-71.3897"/>
<polygon fill="#000000" stroke="#000000" points="117.5001,-71.2024 114,-61.2024 110.5001,-71.2024 117.5001,-71.2024"/>
</g>
<!-- M1 -->
<g id="node2" class="node">
<title>M1</title>
<polygon fill="none" stroke="#000000" points="141,-242.8 87,-242.8 87,-188.8 141,-188.8 141,-242.8"/>
<polygon fill="#add8e6" stroke="transparent" points="99,-216.8 99,-236.8 124,-236.8 124,-216.8 99,-216.8"/>
<text text-anchor="start" x="100.6087" y="-222.2" font-family="Times,serif" font-size="14.00" fill="#000000">Sub</text>
<polygon fill="#f5f5dc" stroke="transparent" points="126,-216.8 126,-236.8 130,-236.8 130,-216.8 126,-216.8"/>
<text text-anchor="start" x="104.7777" y="-200.2" font-family="Times,serif" font-size="14.00" fill="#000000">M1</text>
</g>
<!-- M1&#45;&gt;M0 -->
<g id="edge2" class="edge">
<title>M1-&gt;M0</title>
<path fill="none" stroke="#000000" d="M114,-188.497C114,-180.2187 114,-170.9783 114,-162.1595"/>
<polygon fill="#000000" stroke="#000000" points="117.5001,-162.0837 114,-152.0837 110.5001,-162.0838 117.5001,-162.0837"/>
</g>
<!-- M2 -->
<g id="node3" class="node">
<title>M2</title>
<polygon fill="none" stroke="#000000" points="114.5,-333.8 45.5,-333.8 45.5,-279.8 114.5,-279.8 114.5,-333.8"/>
<polygon fill="#add8e6" stroke="transparent" points="56,-307.8 56,-327.8 60,-327.8 60,-307.8 56,-307.8"/>
<polygon fill="#f5f5dc" stroke="transparent" points="62,-307.8 62,-327.8 105,-327.8 105,-307.8 62,-307.8"/>
<text text-anchor="start" x="63.6718" y="-313.2" font-family="Times,serif" font-size="14.00" fill="#000000">prettyp</text>
<text text-anchor="start" x="70.7777" y="-291.2" font-family="Times,serif" font-size="14.00" fill="#000000">M2</text>
</g>
<!-- M2&#45;&gt;M1 -->
<g id="edge8" class="edge">
<title>M2-&gt;M1</title>
<path fill="none" stroke="#000000" d="M90.2011,-279.497C93.3613,-271.0388 96.8969,-261.576 100.2562,-252.585"/>
<polygon fill="#000000" stroke="#000000" points="103.5847,-253.6763 103.8061,-243.0837 97.0274,-251.2262 103.5847,-253.6763"/>
</g>
<!-- M3 -->
<g id="node4" class="node">
<title>M3</title>
<polygon fill="none" stroke="#000000" points="122,-477.8 0,-477.8 0,-423.8 122,-423.8 122,-477.8"/>
<polygon fill="#add8e6" stroke="transparent" points="10,-451.8 10,-471.8 106,-471.8 106,-451.8 10,-451.8"/>
<text text-anchor="start" x="11.7279" y="-457.2" font-family="Times,serif" font-size="14.00" fill="#000000">Neg, Mult, Divd</text>
<polygon fill="#f5f5dc" stroke="transparent" points="108,-451.8 108,-471.8 112,-471.8 112,-451.8 108,-451.8"/>
<text text-anchor="start" x="51.2777" y="-435.2" font-family="Times,serif" font-size="14.00" fill="#000000">M3</text>
</g>
<!-- M3&#45;&gt;M2 -->
<g id="edge10" class="edge">
<title>M3-&gt;M2</title>
<path fill="none" stroke="#000000" d="M64.5738,-423.7147C67.5272,-401.3305 71.7531,-369.3029 75.0353,-344.4275"/>
<polygon fill="#000000" stroke="#000000" points="78.5394,-344.6254 76.3777,-334.2534 71.5996,-343.7096 78.5394,-344.6254"/>
</g>
<!-- W1 -->
<g id="node5" class="node">
<title>W1</title>
<polygon fill="none" stroke="#000000" points="180.5,-405.8 115.5,-405.8 115.5,-351.8 180.5,-351.8 180.5,-405.8"/>
<polygon fill="#add8e6" stroke="transparent" points="126,-379.8 126,-399.8 165,-399.8 165,-379.8 126,-379.8"/>
<text text-anchor="start" x="127.6178" y="-385.2" font-family="Times,serif" font-size="14.00" fill="#000000">Power</text>
<polygon fill="#f5f5dc" stroke="transparent" points="167,-379.8 167,-399.8 171,-399.8 171,-379.8 167,-379.8"/>
<text text-anchor="start" x="138.3927" y="-363.2" font-family="Times,serif" font-size="14.00" fill="#000000">W1</text>
</g>
<!-- W1&#45;&gt;M1 -->
<g id="edge7" class="edge">
<title>W1-&gt;M1</title>
<path fill="none" stroke="#000000" d="M142.3092,-351.5175C136.678,-324.521 128.017,-282.999 121.7577,-252.9911"/>
<polygon fill="#000000" stroke="#000000" points="125.121,-251.9744 119.6527,-242.8998 118.2685,-253.4038 125.121,-251.9744"/>
</g>
<!-- M3W1 -->
<g id="node6" class="node">
<title>M3W1</title>
<polygon fill="none" stroke="#000000" points="137.5,-552.8 72.5,-552.8 72.5,-514.8 137.5,-514.8 137.5,-552.8"/>
<polygon fill="#add8e6" stroke="transparent" points="83,-542.8 83,-546.8 104,-546.8 104,-542.8 83,-542.8"/>
<polygon fill="#f5f5dc" stroke="transparent" points="106,-542.8 106,-546.8 128,-546.8 128,-542.8 106,-542.8"/>
<text text-anchor="start" x="85.6704" y="-526.2" font-family="Times,serif" font-size="14.00" fill="#000000">M3W1</text>
</g>
<!-- M3W1&#45;&gt;M3 -->
<g id="edge5" class="edge">
<title>M3W1-&gt;M3</title>
<path fill="none" stroke="#000000" d="M94.7949,-514.5495C90.4086,-506.2752 85.134,-496.3256 80.0704,-486.7736"/>
<polygon fill="#000000" stroke="#000000" points="83.0921,-485.001 75.3159,-477.8051 76.9074,-488.2797 83.0921,-485.001"/>
</g>
<!-- M3W1&#45;&gt;W1 -->
<g id="edge6" class="edge">
<title>M3W1-&gt;W1</title>
<path fill="none" stroke="#000000" d="M115.4523,-514.6084C120.8183,-504.0238 127.0421,-490.4886 131,-477.8 137.2218,-457.8537 141.3435,-434.8928 143.968,-416.1082"/>
<polygon fill="#000000" stroke="#000000" points="147.4441,-416.5182 145.2758,-406.1476 140.5037,-415.6068 147.4441,-416.5182"/>
</g>
<!-- Q1 -->
<g id="node7" class="node">
<title>Q1</title>
<polygon fill="none" stroke="#000000" points="156.5,-643.8 53.5,-643.8 53.5,-589.8 156.5,-589.8 156.5,-643.8"/>
<polygon fill="#add8e6" stroke="transparent" points="64,-617.8 64,-637.8 91,-637.8 91,-617.8 64,-617.8"/>
<text text-anchor="start" x="65.8331" y="-623.2" font-family="Times,serif" font-size="14.00" fill="#000000">Sqrt</text>
<polygon fill="#f5f5dc" stroke="transparent" points="93,-617.8 93,-637.8 147,-637.8 147,-617.8 93,-617.8"/>
<text text-anchor="start" x="94.7349" y="-623.2" font-family="Times,serif" font-size="14.00" fill="#000000">astree, id</text>
<text text-anchor="start" x="96.9467" y="-601.2" font-family="Times,serif" font-size="14.00" fill="#000000">Q1</text>
</g>
<!-- Q1&#45;&gt;M3W1 -->
<g id="edge9" class="edge">
<title>Q1-&gt;M3W1</title>
<path fill="none" stroke="#000000" d="M105,-589.6227C105,-581.0853 105,-571.6262 105,-562.9575"/>
<polygon fill="#000000" stroke="#000000" points="108.5001,-562.8907 105,-552.8907 101.5001,-562.8907 108.5001,-562.8907"/>
</g>
<!-- Q1&#45;&gt;Q1 -->
<g id="edge11" class="edge">
<title>Q1-&gt;Q1</title>
<path fill="none" stroke="#c0c0c0" stroke-dasharray="5,2" d="M156.5253,-624.7353C166.9995,-623.8709 174.5,-621.2258 174.5,-616.8 174.5,-613.9647 171.4218,-611.8603 166.4555,-610.4866"/>
<polygon fill="#c0c0c0" stroke="#c0c0c0" points="166.9587,-607.0225 156.5253,-608.8647 165.8303,-613.9309 166.9587,-607.0225"/>
<text text-anchor="start" x="174.5" y="-612.6" font-family="Times,serif" font-size="14.00" fill="#000000">astree-id</text>
</g>
<!-- C2 -->
<g id="node8" class="node">
<title>C2</title>
<polygon fill="none" stroke="#000000" points="207.5,-734.8 140.5,-734.8 140.5,-680.8 207.5,-680.8 207.5,-734.8"/>
<polygon fill="#add8e6" stroke="transparent" points="151,-708.8 151,-728.8 155,-728.8 155,-708.8 151,-708.8"/>
<polygon fill="#f5f5dc" stroke="transparent" points="157,-708.8 157,-728.8 198,-728.8 198,-708.8 157,-708.8"/>
<text text-anchor="start" x="158.8422" y="-714.2" font-family="Times,serif" font-size="14.00" fill="#000000">collect</text>
<text text-anchor="start" x="166.3317" y="-692.2" font-family="Times,serif" font-size="14.00" fill="#000000">C2</text>
</g>
<!-- C2&#45;&gt;Q1 -->
<g id="edge4" class="edge">
<title>C2-&gt;Q1</title>
<path fill="none" stroke="#000000" d="M153.2977,-680.497C146.5432,-671.5888 138.9439,-661.5665 131.8072,-652.1545"/>
<polygon fill="#000000" stroke="#000000" points="134.5186,-649.9374 125.6877,-644.0837 128.9407,-654.1668 134.5186,-649.9374"/>
</g>
<!-- V1 -->
<g id="node9" class="node">
<title>V1</title>
<polygon fill="none" stroke="#000000" points="113,-825.8 59,-825.8 59,-771.8 113,-771.8 113,-825.8"/>
<polygon fill="#add8e6" stroke="transparent" points="72,-799.8 72,-819.8 94,-819.8 94,-799.8 72,-799.8"/>
<text text-anchor="start" x="73.6697" y="-805.2" font-family="Times,serif" font-size="14.00" fill="#000000">Inv</text>
<polygon fill="#f5f5dc" stroke="transparent" points="96,-799.8 96,-819.8 100,-819.8 100,-799.8 96,-799.8"/>
<text text-anchor="start" x="77.4467" y="-783.2" font-family="Times,serif" font-size="14.00" fill="#000000">V1</text>
</g>
<!-- V1&#45;&gt;Q1 -->
<g id="edge12" class="edge">
<title>V1-&gt;Q1</title>
<path fill="none" stroke="#c0c0c0" stroke-dasharray="5,2" d="M82.7543,-771.4227C80.5532,-747.3816 78.8513,-711.5471 83.8092,-680.8 85.2577,-671.8168 87.7807,-662.3875 90.592,-653.6114"/>
<polygon fill="#c0c0c0" stroke="#c0c0c0" points="93.9412,-654.6335 93.8467,-644.0391 87.3138,-652.3801 93.9412,-654.6335"/>
<text text-anchor="start" x="84" y="-703.6" font-family="Times,serif" font-size="14.00" fill="#000000">astree-id</text>
</g>
<!-- V1&#45;&gt;C2 -->
<g id="edge1" class="edge">
<title>V1-&gt;C2</title>
<path fill="none" stroke="#000000" d="M112.4029,-771.497C121.2784,-762.3189 131.2977,-751.9581 140.6368,-742.3006"/>
<polygon fill="#000000" stroke="#000000" points="143.1801,-744.7054 147.6157,-735.0837 138.1481,-739.8393 143.1801,-744.7054"/>
</g>
</g>
</svg>