<?xml version="1.0" encoding="UTF-8" standalone="no"?><!DOCTYPE svg PUBLIC "-//W3C//DTD SVG 1.1//EN" "http://www.w3.org/Graphics/SVG/1.1/DTD/svg11.dtd"><!-- Generated by graphviz version 2.40.1 (20161225.0304)
 --><!-- Title: G Pages: 1 --><svg xmlns="http://www.w3.org/2000/svg" xmlns:xlink="http://www.w3.org/1999/xlink" width="798pt" height="1010pt" viewBox="0.00 0.00 797.65 1010.20">
<g id="graph0" class="graph" transform="scale(1 1) rotate(0) translate(4 1006.2)">
<title>G</title>
<polygon fill="#ffffff" stroke="transparent" points="-4,4 -4,-1006.2 793.648,-1006.2 793.648,4 -4,4"/>
<text text-anchor="middle" x="394.824" y="-8.2" font-family="Times,serif" font-size="14.00" fill="#000000"></text>
<!-- M0 -->
<g id="node1" class="node">
<title>M0</title>
<polygon fill="none" stroke="#000000" points="300,-151.8 200,-151.8 200,-97.8 300,-97.8 300,-151.8"/>
<polygon fill="#add8e6" stroke="transparent" points="210,-125.8 210,-145.8 261,-145.8 261,-125.8 210,-125.8"/>
<text text-anchor="start" x="211.7798" y="-131.2" font-family="Times,serif" font-size="14.00" fill="#000000">Lit, Add</text>
<polygon fill="#f5f5dc" stroke="transparent" points="263,-125.8 263,-145.8 290,-145.8 290,-125.8 263,-125.8"/>
<text text-anchor="start" x="264.8401" y="-131.2" font-family="Times,serif" font-size="14.00" fill="#000000">eval</text>
<text text-anchor="start" x="240.2777" y="-109.2" font-family="Times,serif" font-size="14.00" fill="#000000">M0</text>
</g>
<!-- MATHDOMAIN -->
<g id="node13" class="node">
<title>MATHDOMAIN</title>
<ellipse fill="none" stroke="#000000" cx="250" cy="-42.8" rx="79.2942" ry="18"/>
<text text-anchor="middle" x="250" y="-38.6" font-family="Times,serif" font-size="14.00" fill="#000000">MATHDOMAIN</text>
</g>
<!-- M0&#45;&gt;MATHDOMAIN -->
<g id="edge2" class="edge">
<title>M0-&gt;MATHDOMAIN</title>
<path fill="none" stroke="#000000" d="M250,-97.4952C250,-89.1091 250,-79.8593 250,-71.3897"/>
<polygon fill="#000000" stroke="#000000" points="253.5001,-71.2024 250,-61.2024 246.5001,-71.2024 253.5001,-71.2024"/>
</g>
<!-- J1 -->
<g id="node2" class="node">
<title>J1</title>
<polygon fill="none" stroke="#000000" points="415,-242.8 305,-242.8 305,-188.8 415,-188.8 415,-242.8"/>
<polygon fill="#add8e6" stroke="transparent" points="315,-216.8 315,-236.8 340,-236.8 340,-216.8 315,-216.8"/>
<text text-anchor="start" x="316.6087" y="-222.2" font-family="Times,serif" font-size="14.00" fill="#000000">Sub</text>
<polygon fill="#f5f5dc" stroke="transparent" points="342,-216.8 342,-236.8 405,-236.8 405,-216.8 342,-216.8"/>
<text text-anchor="start" x="343.9362" y="-223.2" font-family="Times,serif" font-size="14.00" fill="#000000">multBy</text>
<text text-anchor="start" x="385.9446" y="-223.2" font-family="Times,serif" baseline-shift="sub" font-size="14.00" fill="#000000">BP</text>
<text text-anchor="start" x="353.7777" y="-200.2" font-family="Times,serif" font-size="14.00" fill="#000000">J1</text>
</g>
<!-- J1&#45;&gt;M0 -->
<g id="edge13" class="edge">
<title>J1-&gt;M0</title>
<path fill="none" stroke="#000000" d="M327.2942,-188.7434C315.7612,-179.2024 302.6539,-168.3591 290.5512,-158.3469"/>
<polygon fill="#000000" stroke="#000000" points="292.7059,-155.587 282.7697,-151.9095 288.2439,-160.9806 292.7059,-155.587"/>
</g>
<!-- J2 -->
<g id="node3" class="node">
<title>J2</title>
<polygon fill="none" stroke="#000000" points="544,-349.6 278,-349.6 278,-295.6 544,-295.6 544,-349.6"/>
<polygon fill="#add8e6" stroke="transparent" points="288,-323.6 288,-343.6 319,-343.6 319,-323.6 288,-323.6"/>
<text text-anchor="start" x="289.8871" y="-329" font-family="Times,serif" font-size="14.00" fill="#000000">Mult</text>
<polygon fill="#f5f5dc" stroke="transparent" points="321,-323.6 321,-343.6 534,-343.6 534,-323.6 321,-323.6"/>
<text text-anchor="start" x="322.8794" y="-330" font-family="Times,serif" font-size="14.00" fill="#000000">eql</text>
<text text-anchor="start" x="339.9846" y="-330" font-family="Times,serif" baseline-shift="sub" font-size="14.00" fill="#000000">B</text>
<text text-anchor="start" x="349.3212" y="-330" font-family="Times,serif" font-size="14.00" fill="#000000">, isSub</text>
<text text-anchor="start" x="387.439" y="-330" font-family="Times,serif" baseline-shift="sub" font-size="14.00" fill="#000000">B</text>
<text text-anchor="start" x="396.7756" y="-330" font-family="Times,serif" font-size="14.00" fill="#000000">, isLit, isAdd</text>
<text text-anchor="start" x="469.8864" y="-330" font-family="Times,serif" baseline-shift="sub" font-size="14.00" fill="#000000">B</text>
<text text-anchor="start" x="479.223" y="-330" font-family="Times,serif" font-size="14.00" fill="#000000">, isMult</text>
<text text-anchor="start" x="522.784" y="-330" font-family="Times,serif" baseline-shift="sub" font-size="14.00" fill="#000000">B</text>
<text text-anchor="start" x="404.7777" y="-307" font-family="Times,serif" font-size="14.00" fill="#000000">J2</text>
</g>
<!-- J2&#45;&gt;J1 -->
<g id="edge5" class="edge">
<title>J2-&gt;J1</title>
<path fill="none" stroke="#000000" d="M397.9986,-295.3735C391.7642,-282.318 384.2057,-266.4895 377.477,-252.3988"/>
<polygon fill="#000000" stroke="#000000" points="380.4453,-250.4925 372.9777,-242.9768 374.1285,-253.5089 380.4453,-250.4925"/>
</g>
<!-- J2&#45;&gt;J2 -->
<g id="edge14" class="edge">
<title>J2-&gt;J2</title>
<path fill="none" stroke="#c0c0c0" stroke-dasharray="5,2" d="M544.021,-326.3678C555.1047,-325.5571 562,-324.3012 562,-322.6 562,-321.5102 559.1702,-320.6031 554.2221,-319.8787"/>
<polygon fill="#c0c0c0" stroke="#c0c0c0" points="554.326,-316.3711 544.021,-318.8322 553.6115,-323.3345 554.326,-316.3711"/>
<text text-anchor="start" x="562" y="-318.4" font-family="Times,serif" font-size="14.00" fill="#000000">eql-isOP</text>
</g>
<!-- J2&#45;&gt;J2 -->
<g id="edge25" class="edge">
<title>J2-&gt;J2</title>
<path fill="none" stroke="#c0c0c0" stroke-dasharray="5,2" d="M544.4765,-332.257C581.748,-331.6842 610.9902,-328.4652 610.9902,-322.6 610.9902,-317.2846 586.9739,-314.1426 554.7299,-313.1739"/>
<polygon fill="#c0c0c0" stroke="#c0c0c0" points="554.5528,-309.6691 544.4765,-312.943 554.3951,-316.6673 554.5528,-309.6691"/>
<text text-anchor="start" x="610.9902" y="-318.4" font-family="Times,serif" font-size="14.00" fill="#000000">isOP-eql</text>
</g>
<!-- J3 -->
<g id="node4" class="node">
<title>J3</title>
<polygon fill="none" stroke="#000000" points="604,-456.4 374,-456.4 374,-402.4 604,-402.4 604,-456.4"/>
<polygon fill="#add8e6" stroke="transparent" points="384,-430.4 384,-450.4 446,-450.4 446,-430.4 384,-430.4"/>
<text text-anchor="start" x="385.8408" y="-435.8" font-family="Times,serif" font-size="14.00" fill="#000000">Neg, Divd</text>
<polygon fill="#f5f5dc" stroke="transparent" points="448,-430.4 448,-450.4 594,-450.4 594,-430.4 448,-430.4"/>
<text text-anchor="start" x="449.8408" y="-436.8" font-family="Times,serif" font-size="14.00" fill="#000000">prettyp, isNeg</text>
<text text-anchor="start" x="529.1536" y="-436.8" font-family="Times,serif" baseline-shift="sub" font-size="14.00" fill="#000000">B</text>
<text text-anchor="start" x="538.4902" y="-436.8" font-family="Times,serif" font-size="14.00" fill="#000000">, isDivd</text>
<text text-anchor="start" x="582.8226" y="-436.8" font-family="Times,serif" baseline-shift="sub" font-size="14.00" fill="#000000">B</text>
<text text-anchor="start" x="482.7777" y="-413.8" font-family="Times,serif" font-size="14.00" fill="#000000">J3</text>
</g>
<!-- J3&#45;&gt;J2 -->
<g id="edge8" class="edge">
<title>J3-&gt;J2</title>
<path fill="none" stroke="#000000" d="M483.4054,-402.2678C480.1694,-390.8563 475.2575,-377.8733 468,-367.6 465.3504,-363.8494 462.301,-360.2551 459.0191,-356.8487"/>
<polygon fill="#000000" stroke="#000000" points="461.1801,-354.073 451.5283,-349.7034 456.3486,-359.1382 461.1801,-354.073"/>
</g>
<!-- J3&#45;&gt;J2 -->
<g id="edge22" class="edge">
<title>J3-&gt;J2</title>
<path fill="none" stroke="#c0c0c0" stroke-dasharray="5,2" d="M430.9981,-402.2449C424.7281,-397.1381 419.1379,-391.2157 415.0098,-384.4 410.6142,-377.1427 408.5476,-368.4873 407.7917,-359.9852"/>
<polygon fill="#c0c0c0" stroke="#c0c0c0" points="411.2833,-359.6725 407.4514,-349.795 404.2872,-359.9063 411.2833,-359.6725"/>
<text text-anchor="start" x="416" y="-371.8" font-family="Times,serif" font-size="14.00" fill="#000000">isOP-eql</text>
</g>
<!-- J3&#45;&gt;J3 -->
<g id="edge20" class="edge">
<title>J3-&gt;J3</title>
<path fill="none" stroke="#c0c0c0" stroke-dasharray="5,2" d="M604.3767,-436.014C615.1798,-434.6554 622,-432.4508 622,-429.4 622,-427.4456 619.201,-425.8384 614.3489,-424.5785"/>
<polygon fill="#c0c0c0" stroke="#c0c0c0" points="614.8382,-421.1104 604.3767,-422.786 613.5997,-428 614.8382,-421.1104"/>
<text text-anchor="start" x="622" y="-425.2" font-family="Times,serif" font-size="14.00" fill="#000000">eql-isOP</text>
</g>
<!-- J4 -->
<g id="node5" class="node">
<title>J4</title>
<polygon fill="none" stroke="#000000" points="529,-547.4 449,-547.4 449,-493.4 529,-493.4 529,-547.4"/>
<polygon fill="#add8e6" stroke="transparent" points="459,-521.4 459,-541.4 463,-541.4 463,-521.4 459,-521.4"/>
<polygon fill="#f5f5dc" stroke="transparent" points="465,-521.4 465,-541.4 519,-541.4 519,-521.4 465,-521.4"/>
<text text-anchor="start" x="466.7349" y="-526.8" font-family="Times,serif" font-size="14.00" fill="#000000">astree, id</text>
<text text-anchor="start" x="482.7777" y="-504.8" font-family="Times,serif" font-size="14.00" fill="#000000">J4</text>
</g>
<!-- J4&#45;&gt;J3 -->
<g id="edge3" class="edge">
<title>J4-&gt;J3</title>
<path fill="none" stroke="#000000" d="M489,-493.097C489,-484.8187 489,-475.5783 489,-466.7595"/>
<polygon fill="#000000" stroke="#000000" points="492.5001,-466.6837 489,-456.6837 485.5001,-466.6838 492.5001,-466.6837"/>
</g>
<!-- J4&#45;&gt;J4 -->
<g id="edge15" class="edge">
<title>J4-&gt;J4</title>
<path fill="none" stroke="#c0c0c0" stroke-dasharray="5,2" d="M529.1186,-528.5513C539.3323,-528.0155 547,-525.2984 547,-520.4 547,-517.3385 544.0048,-515.129 539.2648,-513.7717"/>
<polygon fill="#c0c0c0" stroke="#c0c0c0" points="539.5274,-510.272 529.1186,-512.2487 538.4883,-517.1944 539.5274,-510.272"/>
<text text-anchor="start" x="547" y="-516.2" font-family="Times,serif" font-size="14.00" fill="#000000">astree-id</text>
</g>
<!-- J5 -->
<g id="node6" class="node">
<title>J5</title>
<polygon fill="none" stroke="#000000" points="499.5,-654.2 412.5,-654.2 412.5,-600.2 499.5,-600.2 499.5,-654.2"/>
<polygon fill="#add8e6" stroke="transparent" points="423,-628.2 423,-648.2 427,-648.2 427,-628.2 423,-628.2"/>
<polygon fill="#f5f5dc" stroke="transparent" points="429,-628.2 429,-648.2 490,-648.2 490,-628.2 429,-628.2"/>
<text text-anchor="start" x="430.7265" y="-634.6" font-family="Times,serif" font-size="14.00" fill="#000000">equal_to</text>
<text text-anchor="start" x="478.9369" y="-634.6" font-family="Times,serif" baseline-shift="sub" font-size="14.00" fill="#000000">B</text>
<text text-anchor="start" x="450.2777" y="-611.6" font-family="Times,serif" font-size="14.00" fill="#000000">J5</text>
</g>
<!-- J5&#45;&gt;J4 -->
<g id="edge6" class="edge">
<title>J5-&gt;J4</title>
<path fill="none" stroke="#000000" d="M417.1591,-599.9803C407.1655,-589.5797 400.9727,-577.3429 408,-565.4 415.2212,-553.1274 427.1325,-543.9618 439.6273,-537.2218"/>
<polygon fill="#000000" stroke="#000000" points="441.336,-540.2821 448.7698,-532.733 438.2508,-533.9986 441.336,-540.2821"/>
</g>
<!-- J5&#45;&gt;J4 -->
<g id="edge26" class="edge">
<title>J5-&gt;J4</title>
<path fill="none" stroke="#c0c0c0" stroke-dasharray="5,2" d="M433.1555,-600.1749C426.7271,-589.2667 422.8468,-576.6282 428.4894,-565.4 431.6097,-559.191 436.0373,-553.6223 441.096,-548.6952"/>
<polygon fill="#c0c0c0" stroke="#c0c0c0" points="443.6246,-551.1349 448.8805,-541.9357 439.035,-545.8495 443.6246,-551.1349"/>
<text text-anchor="start" x="429" y="-569.6" font-family="Times,serif" font-size="14.00" fill="#000000">equal_to-astree</text>
</g>
<!-- K1 -->
<g id="node7" class="node">
<title>K1</title>
<polygon fill="none" stroke="#000000" points="147.5,-456.4 28.5,-456.4 28.5,-402.4 147.5,-402.4 147.5,-456.4"/>
<polygon fill="#add8e6" stroke="transparent" points="39,-430.4 39,-450.4 78,-450.4 78,-430.4 39,-430.4"/>
<text text-anchor="start" x="40.6178" y="-435.8" font-family="Times,serif" font-size="14.00" fill="#000000">Power</text>
<polygon fill="#f5f5dc" stroke="transparent" points="80,-430.4 80,-450.4 138,-450.4 138,-430.4 80,-430.4"/>
<text text-anchor="start" x="81.7819" y="-436.8" font-family="Times,serif" font-size="14.00" fill="#000000">isPower</text>
<text text-anchor="start" x="126.8815" y="-436.8" font-family="Times,serif" baseline-shift="sub" font-size="14.00" fill="#000000">B</text>
<text text-anchor="start" x="79.9467" y="-413.8" font-family="Times,serif" font-size="14.00" fill="#000000">K1</text>
</g>
<!-- K1&#45;&gt;M0 -->
<g id="edge29" class="edge">
<title>K1-&gt;M0</title>
<path fill="none" stroke="#c0c0c0" stroke-dasharray="5,2" d="M99.3262,-402.3426C113.709,-368.6284 139.8187,-309.518 166.0112,-260.8 184.7832,-225.884 208.7575,-187.5876 226.283,-160.5556"/>
<polygon fill="#c0c0c0" stroke="#c0c0c0" points="229.4346,-162.1301 231.9624,-151.8412 223.5701,-158.308 229.4346,-162.1301"/>
<text text-anchor="start" x="167" y="-265" font-family="Times,serif" font-size="14.00" fill="#000000">multBy-eval</text>
</g>
<!-- K1&#45;&gt;J2 -->
<g id="edge1" class="edge">
<title>K1-&gt;J2</title>
<path fill="none" stroke="#000000" d="M147.6196,-409.6868C195.768,-393.7665 264.3362,-371.0944 319.4404,-352.8742"/>
<polygon fill="#000000" stroke="#000000" points="320.8173,-356.1054 329.213,-349.6429 318.6197,-349.4592 320.8173,-356.1054"/>
</g>
<!-- K1&#45;&gt;J2 -->
<g id="edge23" class="edge">
<title>K1-&gt;J2</title>
<path fill="none" stroke="#c0c0c0" stroke-dasharray="5,2" d="M120.6967,-402.0969C136.991,-389.8036 157.5502,-376.1594 178.0098,-367.6 206.2165,-355.7995 237.651,-347.059 268.0709,-340.5961"/>
<polygon fill="#c0c0c0" stroke="#c0c0c0" points="268.8147,-344.0164 277.9065,-338.5767 267.4069,-337.1595 268.8147,-344.0164"/>
<text text-anchor="start" x="179" y="-371.8" font-family="Times,serif" font-size="14.00" fill="#000000">isOP-eql</text>
</g>
<!-- K1&#45;&gt;K1 -->
<g id="edge24" class="edge">
<title>K1-&gt;K1</title>
<path fill="none" stroke="#c0c0c0" stroke-dasharray="5,2" d="M147.79,-437.1344C158.2344,-436.1031 165.5,-433.525 165.5,-429.4 165.5,-426.8219 162.6619,-424.848 157.9834,-423.4784"/>
<polygon fill="#c0c0c0" stroke="#c0c0c0" points="158.2484,-419.9707 147.79,-421.6656 157.0227,-426.8625 158.2484,-419.9707"/>
<text text-anchor="start" x="165.5" y="-425.2" font-family="Times,serif" font-size="14.00" fill="#000000">eql-isOP</text>
</g>
<!-- J6 -->
<g id="node8" class="node">
<title>J6</title>
<polygon fill="none" stroke="#000000" points="305.5,-745.2 218.5,-745.2 218.5,-691.2 305.5,-691.2 305.5,-745.2"/>
<polygon fill="#add8e6" stroke="transparent" points="229,-719.2 229,-739.2 233,-739.2 233,-719.2 229,-719.2"/>
<polygon fill="#f5f5dc" stroke="transparent" points="235,-719.2 235,-739.2 296,-739.2 296,-719.2 235,-719.2"/>
<text text-anchor="start" x="236.7188" y="-725.6" font-family="Times,serif" font-size="14.00" fill="#000000">powBy</text>
<text text-anchor="start" x="277.162" y="-725.6" font-family="Times,serif" baseline-shift="sub" font-size="14.00" fill="#000000">BP</text>
<text text-anchor="start" x="256.2777" y="-702.6" font-family="Times,serif" font-size="14.00" fill="#000000">J6</text>
</g>
<!-- J6&#45;&gt;M0 -->
<g id="edge18" class="edge">
<title>J6-&gt;M0</title>
<path fill="none" stroke="#c0c0c0" stroke-dasharray="5,2" d="M256.4917,-690.8468C253.3371,-672.8426 250,-648.7128 250,-627.2 250,-627.2 250,-627.2 250,-215.8 250,-198.1747 250,-178.6291 250,-162.1842"/>
<polygon fill="#c0c0c0" stroke="#c0c0c0" points="253.5001,-161.8767 250,-151.8767 246.5001,-161.8768 253.5001,-161.8767"/>
<text text-anchor="start" x="250" y="-425.2" font-family="Times,serif" font-size="14.00" fill="#000000">powBy-eval</text>
</g>
<!-- J6&#45;&gt;J5 -->
<g id="edge12" class="edge">
<title>J6-&gt;J5</title>
<path fill="none" stroke="#000000" d="M305.5265,-697.9387C332.4678,-685.3798 367.7623,-668.8947 399,-654.2 400.3624,-653.5591 401.7429,-652.9092 403.1356,-652.253"/>
<polygon fill="#000000" stroke="#000000" points="404.8917,-655.2945 412.4422,-647.862 401.9048,-648.9638 404.8917,-655.2945"/>
</g>
<!-- K2 -->
<g id="node9" class="node">
<title>K2</title>
<polygon fill="none" stroke="#000000" points="152,-547.4 24,-547.4 24,-493.4 152,-493.4 152,-547.4"/>
<polygon fill="#add8e6" stroke="transparent" points="34,-521.4 34,-541.4 38,-541.4 38,-521.4 34,-521.4"/>
<polygon fill="#f5f5dc" stroke="transparent" points="40,-521.4 40,-541.4 142,-541.4 142,-521.4 40,-521.4"/>
<text text-anchor="start" x="41.6171" y="-527.8" font-family="Times,serif" font-size="14.00" fill="#000000">simplify</text>
<text text-anchor="start" x="88.2847" y="-527.8" font-family="Times,serif" baseline-shift="sub" font-size="14.00" fill="#000000">P</text>
<text text-anchor="start" x="96.0673" y="-527.8" font-family="Times,serif" font-size="14.00" fill="#000000">, collect</text>
<text text-anchor="start" x="79.4467" y="-504.8" font-family="Times,serif" font-size="14.00" fill="#000000">K2</text>
</g>
<!-- K2&#45;&gt;M0 -->
<g id="edge17" class="edge">
<title>K2-&gt;M0</title>
<path fill="none" stroke="#c0c0c0" stroke-dasharray="5,2" d="M40.3942,-493.3569C19.6595,-477.7767 0,-455.9927 0,-429.4 0,-429.4 0,-429.4 0,-215.8 0,-175.6013 115.5774,-147.9973 189.5623,-134.4451"/>
<polygon fill="#c0c0c0" stroke="#c0c0c0" points="190.4839,-137.8358 199.7095,-132.6263 189.2488,-130.9456 190.4839,-137.8358"/>
<text text-anchor="start" x="0" y="-318.4" font-family="Times,serif" font-size="14.00" fill="#000000">simplify-eval</text>
</g>
<!-- K2&#45;&gt;K1 -->
<g id="edge11" class="edge">
<title>K2-&gt;K1</title>
<path fill="none" stroke="#000000" d="M88,-493.097C88,-484.8187 88,-475.5783 88,-466.7595"/>
<polygon fill="#000000" stroke="#000000" points="91.5001,-466.6837 88,-456.6837 84.5001,-466.6838 91.5001,-466.6837"/>
</g>
<!-- K2J6 -->
<g id="node10" class="node">
<title>K2J6</title>
<polygon fill="none" stroke="#000000" points="289.5,-820.2 234.5,-820.2 234.5,-782.2 289.5,-782.2 289.5,-820.2"/>
<polygon fill="#add8e6" stroke="transparent" points="245,-810.2 245,-814.2 261,-814.2 261,-810.2 245,-810.2"/>
<polygon fill="#f5f5dc" stroke="transparent" points="263,-810.2 263,-814.2 280,-814.2 280,-810.2 263,-810.2"/>
<text text-anchor="start" x="247.7244" y="-793.6" font-family="Times,serif" font-size="14.00" fill="#000000">K2J6</text>
</g>
<!-- K2J6&#45;&gt;J6 -->
<g id="edge9" class="edge">
<title>K2J6-&gt;J6</title>
<path fill="none" stroke="#000000" d="M262,-781.9495C262,-774.0164 262,-764.5433 262,-755.3572"/>
<polygon fill="#000000" stroke="#000000" points="265.5001,-755.205 262,-745.2051 258.5001,-755.2051 265.5001,-755.205"/>
</g>
<!-- K2J6&#45;&gt;K2 -->
<g id="edge10" class="edge">
<title>K2J6-&gt;K2</title>
<path fill="none" stroke="#000000" d="M241.5012,-782.1121C231.0516,-771.7746 218.5663,-758.4359 209,-745.2 164.2797,-683.3249 124.96,-602.9431 104.0191,-556.971"/>
<polygon fill="#000000" stroke="#000000" points="107.1392,-555.376 99.8341,-547.7023 100.7594,-558.2567 107.1392,-555.376"/>
</g>
<!-- J7 -->
<g id="node11" class="node">
<title>J7</title>
<polygon fill="none" stroke="#000000" points="559.5,-911.2 474.5,-911.2 474.5,-857.2 559.5,-857.2 559.5,-911.2"/>
<polygon fill="#add8e6" stroke="transparent" points="485,-885.2 485,-905.2 507,-905.2 507,-885.2 485,-885.2"/>
<text text-anchor="start" x="486.6697" y="-890.6" font-family="Times,serif" font-size="14.00" fill="#000000">Inv</text>
<polygon fill="#f5f5dc" stroke="transparent" points="509,-885.2 509,-905.2 550,-905.2 550,-885.2 509,-885.2"/>
<text text-anchor="start" x="510.8338" y="-891.6" font-family="Times,serif" font-size="14.00" fill="#000000">isInv</text>
<text text-anchor="start" x="538.8296" y="-891.6" font-family="Times,serif" baseline-shift="sub" font-size="14.00" fill="#000000">B</text>
<text text-anchor="start" x="511.2777" y="-868.6" font-family="Times,serif" font-size="14.00" fill="#000000">J7</text>
</g>
<!-- J7&#45;&gt;M0 -->
<g id="edge16" class="edge">
<title>J7-&gt;M0</title>
<path fill="none" stroke="#c0c0c0" stroke-dasharray="5,2" d="M559.9631,-875.2442C618.1964,-861.847 715,-834.5594 715,-801.2 715,-801.2 715,-801.2 715,-215.8 715,-175.0443 436.3321,-142.8545 310.4497,-130.3925"/>
<polygon fill="#c0c0c0" stroke="#c0c0c0" points="310.4987,-126.8806 300.205,-129.3885 309.8159,-133.8473 310.4987,-126.8806"/>
<text text-anchor="start" x="715" y="-516.2" font-family="Times,serif" font-size="14.00" fill="#000000">simplify-eval</text>
</g>
<!-- J7&#45;&gt;J2 -->
<g id="edge19" class="edge">
<title>J7-&gt;J2</title>
<path fill="none" stroke="#c0c0c0" stroke-dasharray="5,2" d="M474.2906,-872.5539C423.6416,-857.4529 346,-829.6623 346,-801.2 346,-801.2 346,-801.2 346,-429.4 346,-402.6918 361.0167,-376.9847 376.6145,-357.4866"/>
<polygon fill="#c0c0c0" stroke="#c0c0c0" points="379.3192,-359.7083 383.0569,-349.7946 373.9528,-355.2136 379.3192,-359.7083"/>
<text text-anchor="start" x="346" y="-623" font-family="Times,serif" font-size="14.00" fill="#000000">isOP-eql</text>
</g>
<!-- J7&#45;&gt;J4 -->
<g id="edge21" class="edge">
<title>J7-&gt;J4</title>
<path fill="none" stroke="#c0c0c0" stroke-dasharray="5,2" d="M521.1487,-857.1572C528.7459,-801.4408 541.7064,-670.2877 514,-565.4 513.2511,-562.5647 512.2834,-559.717 511.1654,-556.9066"/>
<polygon fill="#c0c0c0" stroke="#c0c0c0" points="514.233,-555.1993 506.8843,-547.5673 507.8697,-558.1162 514.233,-555.1993"/>
<text text-anchor="start" x="531" y="-714" font-family="Times,serif" font-size="14.00" fill="#000000">equal_to-astree</text>
</g>
<!-- J7&#45;&gt;J4 -->
<g id="edge28" class="edge">
<title>J7-&gt;J4</title>
<path fill="none" stroke="#c0c0c0" stroke-dasharray="5,2" d="M559.6697,-873.9594C594.851,-862.6733 639,-840.6509 639,-801.2 639,-801.2 639,-801.2 639,-627.2 639,-576.9726 582.4987,-548.1692 538.8501,-533.4119"/>
<polygon fill="#c0c0c0" stroke="#c0c0c0" points="539.7888,-530.0372 529.1972,-530.3014 537.6418,-536.6998 539.7888,-530.0372"/>
<text text-anchor="start" x="639" y="-714" font-family="Times,serif" font-size="14.00" fill="#000000">astree-id</text>
</g>
<!-- J7&#45;&gt;K2J6 -->
<g id="edge4" class="edge">
<title>J7-&gt;K2J6</title>
<path fill="none" stroke="#000000" d="M474.1715,-877.0431C436.0523,-869.9131 379.188,-857.3927 332,-839.2 320.8234,-834.891 309.1956,-829.1471 298.7017,-823.4329"/>
<polygon fill="#000000" stroke="#000000" points="300.247,-820.2868 289.8116,-818.4556 296.8274,-826.3947 300.247,-820.2868"/>
</g>
<!-- J7&#45;&gt;J7 -->
<g id="edge27" class="edge">
<title>J7-&gt;J7</title>
<path fill="none" stroke="#c0c0c0" stroke-dasharray="5,2" d="M559.6834,-892.3045C569.9172,-891.671 577.5,-888.9695 577.5,-884.2 577.5,-881.219 574.538,-879.0459 569.8179,-877.6806"/>
<polygon fill="#c0c0c0" stroke="#c0c0c0" points="570.1041,-874.1829 559.6834,-876.0955 569.0224,-881.0988 570.1041,-874.1829"/>
<text text-anchor="start" x="577.5" y="-880" font-family="Times,serif" font-size="14.00" fill="#000000">eql-isOP</text>
</g>
<!-- J8 -->
<g id="node12" class="node">
<title>J8</title>
<polygon fill="none" stroke="#000000" points="549,-1002.2 485,-1002.2 485,-948.2 549,-948.2 549,-1002.2"/>
<polygon fill="#add8e6" stroke="transparent" points="495,-976.2 495,-996.2 499,-996.2 499,-976.2 495,-976.2"/>
<polygon fill="#f5f5dc" stroke="transparent" points="501,-976.2 501,-996.2 539,-996.2 539,-976.2 501,-976.2"/>
<text text-anchor="start" x="502.5021" y="-981.6" font-family="Times,serif" font-size="14.00" fill="#000000">height</text>
<text text-anchor="start" x="510.7777" y="-959.6" font-family="Times,serif" font-size="14.00" fill="#000000">J8</text>
</g>
<!-- J8&#45;&gt;J7 -->
<g id="edge7" class="edge">
<title>J8-&gt;J7</title>
<path fill="none" stroke="#000000" d="M517,-947.897C517,-939.6187 517,-930.3783 517,-921.5595"/>
<polygon fill="#000000" stroke="#000000" points="520.5001,-921.4837 517,-911.4837 513.5001,-921.4838 520.5001,-921.4837"/>
</g>
</g>
</svg>