<?xml version="1.0" encoding="UTF-8" standalone="no"?><!DOCTYPE svg PUBLIC "-//W3C//DTD SVG 1.1//EN" "http://www.w3.org/Graphics/SVG/1.1/DTD/svg11.dtd"><!-- Generated by graphviz version 2.40.1 (20161225.0304)
 --><!-- Title: G Pages: 1 --><svg xmlns="http://www.w3.org/2000/svg" xmlns:xlink="http://www.w3.org/1999/xlink" width="990pt" height="1133pt" viewBox="0.00 0.00 989.65 1133.00">
<g id="graph0" class="graph" transform="scale(1 1) rotate(0) translate(4 1129)">
<title>G</title>
<polygon fill="#ffffff" stroke="transparent" points="-4,4 -4,-1129 985.648,-1129 985.648,4 -4,4"/>
<text text-anchor="middle" x="490.824" y="-8.2" font-family="Times,serif" font-size="14.00" fill="#000000"></text>
<!-- M0 -->
<g id="node1" class="node">
<title>M0</title>
<polygon fill="none" stroke="#000000" points="272,-151.8 172,-151.8 172,-97.8 272,-97.8 272,-151.8"/>
<polygon fill="#add8e6" stroke="transparent" points="182,-125.8 182,-145.8 233,-145.8 233,-125.8 182,-125.8"/>
<text text-anchor="start" x="183.7798" y="-131.2" font-family="Times,serif" font-size="14.00" fill="#000000">Lit, Add</text>
<polygon fill="#f5f5dc" stroke="transparent" points="235,-125.8 235,-145.8 262,-145.8 262,-125.8 235,-125.8"/>
<text text-anchor="start" x="236.8401" y="-131.2" font-family="Times,serif" font-size="14.00" fill="#000000">eval</text>
<text text-anchor="start" x="212.2777" y="-109.2" font-family="Times,serif" font-size="14.00" fill="#000000">M0</text>
</g>
<!-- MATHDOMAIN -->
<g id="node14" class="node">
<title>MATHDOMAIN</title>
<ellipse fill="none" stroke="#000000" cx="222" cy="-42.8" rx="79.2942" ry="18"/>
<text text-anchor="middle" x="222" y="-38.6" font-family="Times,serif" font-size="14.00" fill="#000000">MATHDOMAIN</text>
</g>
<!-- M0&#45;&gt;MATHDOMAIN -->
<g id="edge5" class="edge">
<title>M0-&gt;MATHDOMAIN</title>
<path fill="none" stroke="#000000" d="M222,-97.4952C222,-89.1091 222,-79.8593 222,-71.3897"/>
<polygon fill="#000000" stroke="#000000" points="225.5001,-71.2024 222,-61.2024 218.5001,-71.2024 225.5001,-71.2024"/>
</g>
<!-- M1 -->
<g id="node2" class="node">
<title>M1</title>
<polygon fill="none" stroke="#000000" points="249,-242.8 195,-242.8 195,-188.8 249,-188.8 249,-242.8"/>
<polygon fill="#add8e6" stroke="transparent" points="207,-216.8 207,-236.8 232,-236.8 232,-216.8 207,-216.8"/>
<text text-anchor="start" x="208.6087" y="-222.2" font-family="Times,serif" font-size="14.00" fill="#000000">Sub</text>
<polygon fill="#f5f5dc" stroke="transparent" points="234,-216.8 234,-236.8 238,-236.8 238,-216.8 234,-216.8"/>
<text text-anchor="start" x="212.7777" y="-200.2" font-family="Times,serif" font-size="14.00" fill="#000000">M1</text>
</g>
<!-- M1&#45;&gt;M0 -->
<g id="edge4" class="edge">
<title>M1-&gt;M0</title>
<path fill="none" stroke="#000000" d="M222,-188.497C222,-180.2187 222,-170.9783 222,-162.1595"/>
<polygon fill="#000000" stroke="#000000" points="225.5001,-162.0837 222,-152.0837 218.5001,-162.0838 225.5001,-162.0837"/>
</g>
<!-- M2 -->
<g id="node3" class="node">
<title>M2</title>
<polygon fill="none" stroke="#000000" points="256.5,-333.8 187.5,-333.8 187.5,-279.8 256.5,-279.8 256.5,-333.8"/>
<polygon fill="#add8e6" stroke="transparent" points="198,-307.8 198,-327.8 202,-327.8 202,-307.8 198,-307.8"/>
<polygon fill="#f5f5dc" stroke="transparent" points="204,-307.8 204,-327.8 247,-327.8 247,-307.8 204,-307.8"/>
<text text-anchor="start" x="205.6718" y="-313.2" font-family="Times,serif" font-size="14.00" fill="#000000">prettyp</text>
<text text-anchor="start" x="212.7777" y="-291.2" font-family="Times,serif" font-size="14.00" fill="#000000">M2</text>
</g>
<!-- M2&#45;&gt;M1 -->
<g id="edge10" class="edge">
<title>M2-&gt;M1</title>
<path fill="none" stroke="#000000" d="M222,-279.497C222,-271.2187 222,-261.9783 222,-253.1595"/>
<polygon fill="#000000" stroke="#000000" points="225.5001,-253.0837 222,-243.0837 218.5001,-253.0838 225.5001,-253.0837"/>
</g>
<!-- M3 -->
<g id="node4" class="node">
<title>M3</title>
<polygon fill="none" stroke="#000000" points="296,-424.8 174,-424.8 174,-370.8 296,-370.8 296,-424.8"/>
<polygon fill="#add8e6" stroke="transparent" points="184,-398.8 184,-418.8 280,-418.8 280,-398.8 184,-398.8"/>
<text text-anchor="start" x="185.7279" y="-404.2" font-family="Times,serif" font-size="14.00" fill="#000000">Neg, Mult, Divd</text>
<polygon fill="#f5f5dc" stroke="transparent" points="282,-398.8 282,-418.8 286,-418.8 286,-398.8 282,-398.8"/>
<text text-anchor="start" x="225.2777" y="-382.2" font-family="Times,serif" font-size="14.00" fill="#000000">M3</text>
</g>
<!-- M3&#45;&gt;M2 -->
<g id="edge14" class="edge">
<title>M3-&gt;M2</title>
<path fill="none" stroke="#000000" d="M231.0996,-370.497C229.917,-362.2187 228.5969,-352.9783 227.3371,-344.1595"/>
<polygon fill="#000000" stroke="#000000" points="230.7768,-343.4882 225.8977,-334.0837 223.8472,-344.4782 230.7768,-343.4882"/>
</g>
<!-- M4 -->
<g id="node5" class="node">
<title>M4</title>
<polygon fill="none" stroke="#000000" points="388,-531.6 260,-531.6 260,-477.6 388,-477.6 388,-531.6"/>
<polygon fill="#add8e6" stroke="transparent" points="270,-505.6 270,-525.6 274,-525.6 274,-505.6 270,-505.6"/>
<polygon fill="#f5f5dc" stroke="transparent" points="276,-505.6 276,-525.6 378,-525.6 378,-505.6 276,-505.6"/>
<text text-anchor="start" x="277.6171" y="-512" font-family="Times,serif" font-size="14.00" fill="#000000">simplify</text>
<text text-anchor="start" x="324.2847" y="-512" font-family="Times,serif" baseline-shift="sub" font-size="14.00" fill="#000000">P</text>
<text text-anchor="start" x="332.0673" y="-512" font-family="Times,serif" font-size="14.00" fill="#000000">, collect</text>
<text text-anchor="start" x="314.2777" y="-489" font-family="Times,serif" font-size="14.00" fill="#000000">M4</text>
</g>
<!-- M4&#45;&gt;M0 -->
<g id="edge24" class="edge">
<title>M4-&gt;M0</title>
<path fill="none" stroke="#c0c0c0" stroke-dasharray="5,2" d="M324,-477.3842C324,-455.8014 324,-424.8708 324,-397.8 324,-397.8 324,-397.8 324,-215.8 324,-188.5492 303.4774,-167.436 280.8433,-152.4372"/>
<polygon fill="#c0c0c0" stroke="#c0c0c0" points="282.4411,-149.3089 272.1036,-146.9881 278.7376,-155.2489 282.4411,-149.3089"/>
<text text-anchor="start" x="324" y="-302.6" font-family="Times,serif" font-size="14.00" fill="#000000">simplify-eval</text>
</g>
<!-- M4&#45;&gt;M3 -->
<g id="edge6" class="edge">
<title>M4-&gt;M3</title>
<path fill="none" stroke="#000000" d="M301.3113,-477.3735C290.0132,-463.8159 276.2232,-447.2678 264.1508,-432.7809"/>
<polygon fill="#000000" stroke="#000000" points="266.738,-430.4183 257.6473,-424.9768 261.3604,-434.8997 266.738,-430.4183"/>
</g>
<!-- M5 -->
<g id="node6" class="node">
<title>M5</title>
<polygon fill="none" stroke="#000000" points="529,-638.4 449,-638.4 449,-584.4 529,-584.4 529,-638.4"/>
<polygon fill="#add8e6" stroke="transparent" points="459,-612.4 459,-632.4 463,-632.4 463,-612.4 459,-612.4"/>
<polygon fill="#f5f5dc" stroke="transparent" points="465,-612.4 465,-632.4 519,-632.4 519,-612.4 465,-612.4"/>
<text text-anchor="start" x="466.7349" y="-617.8" font-family="Times,serif" font-size="14.00" fill="#000000">astree, id</text>
<text text-anchor="start" x="479.2777" y="-595.8" font-family="Times,serif" font-size="14.00" fill="#000000">M5</text>
</g>
<!-- M5&#45;&gt;M4 -->
<g id="edge12" class="edge">
<title>M5-&gt;M4</title>
<path fill="none" stroke="#000000" d="M448.6365,-585.2738C426.289,-570.8089 398.3031,-552.6943 374.5149,-537.2969"/>
<polygon fill="#000000" stroke="#000000" points="376.2558,-534.2546 365.959,-531.7589 372.4521,-540.131 376.2558,-534.2546"/>
</g>
<!-- M5&#45;&gt;M5 -->
<g id="edge19" class="edge">
<title>M5-&gt;M5</title>
<path fill="none" stroke="#c0c0c0" stroke-dasharray="5,2" d="M529.1186,-621.0334C539.3323,-620.4002 547,-617.1891 547,-611.4 547,-607.7818 544.0048,-605.1707 539.2648,-603.5665"/>
<polygon fill="#c0c0c0" stroke="#c0c0c0" points="539.5763,-600.0672 529.1186,-601.7666 538.3535,-606.9596 539.5763,-600.0672"/>
<text text-anchor="start" x="547" y="-607.2" font-family="Times,serif" font-size="14.00" fill="#000000">astree-id</text>
</g>
<!-- M6 -->
<g id="node7" class="node">
<title>M6</title>
<polygon fill="none" stroke="#000000" points="588,-745.2 174,-745.2 174,-691.2 588,-691.2 588,-745.2"/>
<polygon fill="#add8e6" stroke="transparent" points="184,-719.2 184,-739.2 188,-739.2 188,-719.2 184,-719.2"/>
<polygon fill="#f5f5dc" stroke="transparent" points="190,-719.2 190,-739.2 578,-739.2 578,-719.2 190,-719.2"/>
<text text-anchor="start" x="191.8906" y="-725.6" font-family="Times,serif" font-size="14.00" fill="#000000">ep_equals</text>
<text text-anchor="start" x="247.8696" y="-725.6" font-family="Times,serif" baseline-shift="sub" font-size="14.00" fill="#000000">B</text>
<text text-anchor="start" x="257.2062" y="-725.6" font-family="Times,serif" font-size="14.00" fill="#000000">, eql</text>
<text text-anchor="start" x="281.3114" y="-725.6" font-family="Times,serif" baseline-shift="sub" font-size="14.00" fill="#000000">B</text>
<text text-anchor="start" x="290.648" y="-725.6" font-family="Times,serif" font-size="14.00" fill="#000000">, isSub</text>
<text text-anchor="start" x="328.7658" y="-725.6" font-family="Times,serif" baseline-shift="sub" font-size="14.00" fill="#000000">B</text>
<text text-anchor="start" x="338.1024" y="-725.6" font-family="Times,serif" font-size="14.00" fill="#000000">, isNeg</text>
<text text-anchor="start" x="377.7588" y="-725.6" font-family="Times,serif" baseline-shift="sub" font-size="14.00" fill="#000000">B</text>
<text text-anchor="start" x="387.0954" y="-725.6" font-family="Times,serif" font-size="14.00" fill="#000000">, isMult</text>
<text text-anchor="start" x="430.6564" y="-725.6" font-family="Times,serif" baseline-shift="sub" font-size="14.00" fill="#000000">B</text>
<text text-anchor="start" x="439.993" y="-725.6" font-family="Times,serif" font-size="14.00" fill="#000000">, isDivd</text>
<text text-anchor="start" x="484.3254" y="-725.6" font-family="Times,serif" baseline-shift="sub" font-size="14.00" fill="#000000">B</text>
<text text-anchor="start" x="493.662" y="-725.6" font-family="Times,serif" font-size="14.00" fill="#000000">, isLit, isAdd</text>
<text text-anchor="start" x="566.7728" y="-725.6" font-family="Times,serif" baseline-shift="sub" font-size="14.00" fill="#000000">B</text>
<text text-anchor="start" x="371.2777" y="-702.6" font-family="Times,serif" font-size="14.00" fill="#000000">M6</text>
</g>
<!-- M6&#45;&gt;M5 -->
<g id="edge2" class="edge">
<title>M6-&gt;M5</title>
<path fill="none" stroke="#000000" d="M455.1399,-691.1068C462.6131,-686.0549 469.47,-680.1295 475,-673.2 480.5732,-666.2164 484.0193,-657.4435 486.127,-648.7198"/>
<polygon fill="#000000" stroke="#000000" points="489.6193,-649.0869 488.0336,-638.6115 482.7406,-647.7894 489.6193,-649.0869"/>
</g>
<!-- M6&#45;&gt;M5 -->
<g id="edge16" class="edge">
<title>M6-&gt;M5</title>
<path fill="none" stroke="#c0c0c0" stroke-dasharray="5,2" d="M372.6687,-691.0071C370.78,-679.4534 370.9933,-666.3773 377.7208,-656.4 391.4722,-636.0059 416.199,-624.8517 438.8571,-618.7524"/>
<polygon fill="#c0c0c0" stroke="#c0c0c0" points="439.8407,-622.1155 448.7379,-616.3631 438.1954,-615.3116 439.8407,-622.1155"/>
<text text-anchor="start" x="378" y="-660.6" font-family="Times,serif" font-size="14.00" fill="#000000">ep_equals-astree</text>
</g>
<!-- M6&#45;&gt;M6 -->
<g id="edge20" class="edge">
<title>M6-&gt;M6</title>
<path fill="none" stroke="#c0c0c0" stroke-dasharray="5,2" d="M588.0892,-720.9463C599.3258,-720.2756 606,-719.3602 606,-718.2 606,-717.4568 603.2609,-716.814 598.3379,-716.2716"/>
<polygon fill="#c0c0c0" stroke="#c0c0c0" points="598.336,-712.7604 588.0892,-715.4537 597.779,-719.7382 598.336,-712.7604"/>
<text text-anchor="start" x="606" y="-714" font-family="Times,serif" font-size="14.00" fill="#000000">isOP-eql</text>
</g>
<!-- M6&#45;&gt;M6 -->
<g id="edge25" class="edge">
<title>M6-&gt;M6</title>
<path fill="none" stroke="#c0c0c0" stroke-dasharray="5,2" d="M588.1578,-725.9739C627.1396,-724.97 654.9902,-722.3787 654.9902,-718.2 654.9902,-714.3967 631.9192,-711.9084 598.3829,-710.7351"/>
<polygon fill="#c0c0c0" stroke="#c0c0c0" points="598.259,-707.2299 588.1578,-710.4261 598.0475,-714.2267 598.259,-707.2299"/>
<text text-anchor="start" x="654.9902" y="-714" font-family="Times,serif" font-size="14.00" fill="#000000">eql-isOP</text>
</g>
<!-- I1 -->
<g id="node8" class="node">
<title>I1</title>
<polygon fill="none" stroke="#000000" points="117.5,-424.8 28.5,-424.8 28.5,-370.8 117.5,-370.8 117.5,-424.8"/>
<polygon fill="#add8e6" stroke="transparent" points="39,-398.8 39,-418.8 43,-418.8 43,-398.8 39,-398.8"/>
<polygon fill="#f5f5dc" stroke="transparent" points="45,-398.8 45,-418.8 108,-418.8 108,-398.8 45,-398.8"/>
<text text-anchor="start" x="46.9362" y="-405.2" font-family="Times,serif" font-size="14.00" fill="#000000">multBy</text>
<text text-anchor="start" x="88.9446" y="-405.2" font-family="Times,serif" baseline-shift="sub" font-size="14.00" fill="#000000">BP</text>
<text text-anchor="start" x="67.6697" y="-382.2" font-family="Times,serif" font-size="14.00" fill="#000000">I1</text>
</g>
<!-- I1&#45;&gt;M2 -->
<g id="edge9" class="edge">
<title>I1-&gt;M2</title>
<path fill="none" stroke="#000000" d="M117.3015,-370.7434C136.643,-358.9308 159.2533,-345.1218 178.5027,-333.3655"/>
<polygon fill="#000000" stroke="#000000" points="180.3767,-336.3221 187.0867,-328.1229 176.7282,-330.3481 180.3767,-336.3221"/>
</g>
<!-- M7 -->
<g id="node9" class="node">
<title>M7</title>
<polygon fill="none" stroke="#000000" points="344.5,-836.2 257.5,-836.2 257.5,-782.2 344.5,-782.2 344.5,-836.2"/>
<polygon fill="#add8e6" stroke="transparent" points="268,-810.2 268,-830.2 272,-830.2 272,-810.2 268,-810.2"/>
<polygon fill="#f5f5dc" stroke="transparent" points="274,-810.2 274,-830.2 335,-830.2 335,-810.2 274,-810.2"/>
<text text-anchor="start" x="275.7188" y="-816.6" font-family="Times,serif" font-size="14.00" fill="#000000">powBy</text>
<text text-anchor="start" x="316.162" y="-816.6" font-family="Times,serif" baseline-shift="sub" font-size="14.00" fill="#000000">BP</text>
<text text-anchor="start" x="291.7777" y="-793.6" font-family="Times,serif" font-size="14.00" fill="#000000">M7</text>
</g>
<!-- M7&#45;&gt;M0 -->
<g id="edge15" class="edge">
<title>M7-&gt;M0</title>
<path fill="none" stroke="#c0c0c0" stroke-dasharray="5,2" d="M257.4114,-802.6604C211.5662,-793.0221 146,-770.1557 146,-718.2 146,-718.2 146,-718.2 146,-215.8 146,-193.8655 159.1687,-174.4241 174.5429,-159.2009"/>
<polygon fill="#c0c0c0" stroke="#c0c0c0" points="177.2721,-161.443 182.2193,-152.0741 172.5094,-156.313 177.2721,-161.443"/>
<text text-anchor="start" x="146" y="-447" font-family="Times,serif" font-size="14.00" fill="#000000">powBy-eval</text>
</g>
<!-- M7&#45;&gt;M6 -->
<g id="edge7" class="edge">
<title>M7-&gt;M6</title>
<path fill="none" stroke="#000000" d="M325.0026,-781.897C332.9131,-772.8989 341.8229,-762.7639 350.1697,-753.2695"/>
<polygon fill="#000000" stroke="#000000" points="353.0404,-755.3051 357.0143,-745.4837 347.7831,-750.6833 353.0404,-755.3051"/>
</g>
<!-- I2 -->
<g id="node10" class="node">
<title>I2</title>
<polygon fill="none" stroke="#000000" points="105.5,-531.6 40.5,-531.6 40.5,-477.6 105.5,-477.6 105.5,-531.6"/>
<polygon fill="#add8e6" stroke="transparent" points="51,-505.6 51,-525.6 90,-525.6 90,-505.6 51,-505.6"/>
<text text-anchor="start" x="52.6178" y="-511" font-family="Times,serif" font-size="14.00" fill="#000000">Power</text>
<polygon fill="#f5f5dc" stroke="transparent" points="92,-505.6 92,-525.6 96,-525.6 96,-505.6 92,-505.6"/>
<text text-anchor="start" x="67.6697" y="-489" font-family="Times,serif" font-size="14.00" fill="#000000">I2</text>
</g>
<!-- I2&#45;&gt;M0 -->
<g id="edge27" class="edge">
<title>I2-&gt;M0</title>
<path fill="none" stroke="#c0c0c0" stroke-dasharray="5,2" d="M40.7686,-477.2001C21.213,-457.4071 0,-428.7936 0,-397.8 0,-397.8 0,-397.8 0,-215.8 0,-180.6867 96.2861,-152.3542 162.035,-137.1006"/>
<polygon fill="#c0c0c0" stroke="#c0c0c0" points="162.9277,-140.4871 171.9021,-134.8558 161.3748,-133.6615 162.9277,-140.4871"/>
<text text-anchor="start" x="0" y="-302.6" font-family="Times,serif" font-size="14.00" fill="#000000">multBy-eval</text>
</g>
<!-- I2&#45;&gt;I1 -->
<g id="edge1" class="edge">
<title>I2-&gt;I1</title>
<path fill="none" stroke="#000000" d="M73,-477.3735C73,-464.5691 73,-449.0973 73,-435.2136"/>
<polygon fill="#000000" stroke="#000000" points="76.5001,-434.9767 73,-424.9768 69.5001,-434.9768 76.5001,-434.9767"/>
</g>
<!-- M7I2 -->
<g id="node11" class="node">
<title>M7I2</title>
<polygon fill="none" stroke="#000000" points="383,-943 299,-943 299,-889 383,-889 383,-943"/>
<polygon fill="#add8e6" stroke="transparent" points="309,-917 309,-937 313,-937 313,-917 309,-917"/>
<polygon fill="#f5f5dc" stroke="transparent" points="315,-917 315,-937 373,-937 373,-917 315,-917"/>
<text text-anchor="start" x="316.7819" y="-923.4" font-family="Times,serif" font-size="14.00" fill="#000000">isPower</text>
<text text-anchor="start" x="361.8815" y="-923.4" font-family="Times,serif" baseline-shift="sub" font-size="14.00" fill="#000000">B</text>
<text text-anchor="start" x="325.4474" y="-900.4" font-family="Times,serif" font-size="14.00" fill="#000000">M7I2</text>
</g>
<!-- M7I2&#45;&gt;M6 -->
<g id="edge22" class="edge">
<title>M7I2-&gt;M6</title>
<path fill="none" stroke="#c0c0c0" stroke-dasharray="5,2" d="M346.478,-888.9115C353.4899,-854.2374 365.6688,-794.0126 373.5276,-755.151"/>
<polygon fill="#c0c0c0" stroke="#c0c0c0" points="376.9725,-755.7734 375.5242,-745.278 370.1114,-754.3858 376.9725,-755.7734"/>
<text text-anchor="start" x="368" y="-805" font-family="Times,serif" font-size="14.00" fill="#000000">isOP-eql</text>
</g>
<!-- M7I2&#45;&gt;M7 -->
<g id="edge11" class="edge">
<title>M7I2-&gt;M7</title>
<path fill="none" stroke="#000000" d="M330.8028,-888.7735C325.9131,-875.718 319.9848,-859.8895 314.7074,-845.7988"/>
<polygon fill="#000000" stroke="#000000" points="317.9637,-844.5139 311.1786,-836.3768 311.4084,-846.9691 317.9637,-844.5139"/>
</g>
<!-- M7I2&#45;&gt;I2 -->
<g id="edge13" class="edge">
<title>M7I2-&gt;I2</title>
<path fill="none" stroke="#000000" d="M298.8736,-907.1125C227.6255,-890.8562 91,-853.8605 91,-809.2 91,-809.2 91,-809.2 91,-611.4 91,-587.9151 86.7154,-561.9243 82.3271,-541.4629"/>
<polygon fill="#000000" stroke="#000000" points="85.7194,-540.5949 80.1141,-531.6043 78.8893,-542.1281 85.7194,-540.5949"/>
</g>
<!-- M8 -->
<g id="node12" class="node">
<title>M8</title>
<polygon fill="none" stroke="#000000" points="744.5,-1034 659.5,-1034 659.5,-980 744.5,-980 744.5,-1034"/>
<polygon fill="#add8e6" stroke="transparent" points="670,-1008 670,-1028 692,-1028 692,-1008 670,-1008"/>
<text text-anchor="start" x="671.6697" y="-1013.4" font-family="Times,serif" font-size="14.00" fill="#000000">Inv</text>
<polygon fill="#f5f5dc" stroke="transparent" points="694,-1008 694,-1028 735,-1028 735,-1008 694,-1008"/>
<text text-anchor="start" x="695.8338" y="-1014.4" font-family="Times,serif" font-size="14.00" fill="#000000">isInv</text>
<text text-anchor="start" x="723.8296" y="-1014.4" font-family="Times,serif" baseline-shift="sub" font-size="14.00" fill="#000000">B</text>
<text text-anchor="start" x="692.7777" y="-991.4" font-family="Times,serif" font-size="14.00" fill="#000000">M8</text>
</g>
<!-- M8&#45;&gt;M0 -->
<g id="edge26" class="edge">
<title>M8-&gt;M0</title>
<path fill="none" stroke="#c0c0c0" stroke-dasharray="5,2" d="M744.9747,-997.0934C805.0873,-981.968 907,-951.1427 907,-916 907,-916 907,-916 907,-215.8 907,-153.0433 449.3676,-132.0812 282.2032,-126.5176"/>
<polygon fill="#c0c0c0" stroke="#c0c0c0" points="282.2009,-123.0157 272.0922,-126.1881 281.9728,-130.012 282.2009,-123.0157"/>
<text text-anchor="start" x="907" y="-553.8" font-family="Times,serif" font-size="14.00" fill="#000000">simplify-eval</text>
</g>
<!-- M8&#45;&gt;M5 -->
<g id="edge18" class="edge">
<title>M8-&gt;M5</title>
<path fill="none" stroke="#c0c0c0" stroke-dasharray="5,2" d="M744.5969,-996.1228C782.1718,-983.6629 831,-959.1668 831,-916 831,-916 831,-916 831,-718.2 831,-677.0313 799.1258,-674.1915 762,-656.4 723.5267,-637.9628 607.0062,-623.4461 539.2715,-616.286"/>
<polygon fill="#c0c0c0" stroke="#c0c0c0" points="539.5516,-612.7963 529.2429,-615.2419 538.8267,-619.7587 539.5516,-612.7963"/>
<text text-anchor="start" x="831" y="-805" font-family="Times,serif" font-size="14.00" fill="#000000">astree-id</text>
</g>
<!-- M8&#45;&gt;M5 -->
<g id="edge23" class="edge">
<title>M8-&gt;M5</title>
<path fill="none" stroke="#c0c0c0" stroke-dasharray="5,2" d="M701.1957,-979.6841C700.4914,-937.0451 701.3111,-852.2878 715.7208,-782.2 723.9519,-742.1646 752.9112,-724.3488 729,-691.2 706.5064,-660.0165 602.4689,-634.1522 538.9836,-620.9232"/>
<polygon fill="#c0c0c0" stroke="#c0c0c0" points="539.6607,-617.4893 529.1615,-618.9096 538.2549,-624.3467 539.6607,-617.4893"/>
<text text-anchor="start" x="716" y="-805" font-family="Times,serif" font-size="14.00" fill="#000000">ep_equals-astree</text>
</g>
<!-- M8&#45;&gt;M6 -->
<g id="edge21" class="edge">
<title>M8-&gt;M6</title>
<path fill="none" stroke="#c0c0c0" stroke-dasharray="5,2" d="M671.8011,-979.8304C613.011,-926.9376 483.3217,-810.2577 418.8788,-752.2791"/>
<polygon fill="#c0c0c0" stroke="#c0c0c0" points="421.1276,-749.5943 411.3525,-745.5078 416.4457,-754.7981 421.1276,-749.5943"/>
<text text-anchor="start" x="551" y="-858.4" font-family="Times,serif" font-size="14.00" fill="#000000">isOP-eql</text>
</g>
<!-- M8&#45;&gt;M7I2 -->
<g id="edge8" class="edge">
<title>M8-&gt;M7I2</title>
<path fill="none" stroke="#000000" d="M659.1709,-996.2038C592.636,-979.4318 464.6558,-947.1709 392.9474,-929.0948"/>
<polygon fill="#000000" stroke="#000000" points="393.767,-925.6919 383.2148,-926.6414 392.0559,-932.4796 393.767,-925.6919"/>
</g>
<!-- M8&#45;&gt;M8 -->
<g id="edge17" class="edge">
<title>M8-&gt;M8</title>
<path fill="none" stroke="#c0c0c0" stroke-dasharray="5,2" d="M744.6834,-1015.1045C754.9172,-1014.471 762.5,-1011.7695 762.5,-1007 762.5,-1004.019 759.538,-1001.8459 754.8179,-1000.4806"/>
<polygon fill="#c0c0c0" stroke="#c0c0c0" points="755.1041,-996.9829 744.6834,-998.8955 754.0224,-1003.8988 755.1041,-996.9829"/>
<text text-anchor="start" x="762.5" y="-1002.8" font-family="Times,serif" font-size="14.00" fill="#000000">eql-isOP</text>
</g>
<!-- M9 -->
<g id="node13" class="node">
<title>M9</title>
<polygon fill="none" stroke="#000000" points="734,-1125 670,-1125 670,-1071 734,-1071 734,-1125"/>
<polygon fill="#add8e6" stroke="transparent" points="680,-1099 680,-1119 684,-1119 684,-1099 680,-1099"/>
<polygon fill="#f5f5dc" stroke="transparent" points="686,-1099 686,-1119 724,-1119 724,-1099 686,-1099"/>
<text text-anchor="start" x="687.5021" y="-1104.4" font-family="Times,serif" font-size="14.00" fill="#000000">height</text>
<text text-anchor="start" x="692.2777" y="-1082.4" font-family="Times,serif" font-size="14.00" fill="#000000">M9</text>
</g>
<!-- M9&#45;&gt;M8 -->
<g id="edge3" class="edge">
<title>M9-&gt;M8</title>
<path fill="none" stroke="#000000" d="M702,-1070.697C702,-1062.4187 702,-1053.1783 702,-1044.3595"/>
<polygon fill="#000000" stroke="#000000" points="705.5001,-1044.2837 702,-1034.2837 698.5001,-1044.2838 705.5001,-1044.2837"/>
</g>
</g>
</svg>