<svg xmlns="http://www.w3.org/2000/svg" xmlns:xlink="http://www.w3.org/1999/xlink" width="167pt" height="510pt" viewBox="0.00 0.00 167.16 510.00">
<g id="graph0" class="graph" transform="scale(1 1) rotate(0) translate(4 506)">
<title>G</title>
<polygon fill="white" stroke="none" points="-4,4 -4,-506 163.16,-506 163.16,4 -4,4"/>
<text text-anchor="middle" x="79.58" y="-8.2" font-family="Times,serif" font-size="14.00">Dependency Graph</text>
<!-- M0 -->
<g id="node1" class="node">
<title>M0</title>
<polygon fill="none" stroke="black" points="130.38,-152.4 29.62,-152.4 29.62,-96.8 130.38,-96.8 130.38,-152.4"/>
<polygon fill="lightblue" stroke="none" points="39.62,-125.6 39.62,-146.4 91.06,-146.4 91.06,-125.6 39.62,-125.6"/>
<text text-anchor="start" x="41.62" y="-131.8" font-family="Times,serif" font-size="14.00">Lit, Add</text>
<polygon fill="beige" stroke="none" points="93.06,-125.6 93.06,-146.4 120.38,-146.4 120.38,-125.6 93.06,-125.6"/>
<text text-anchor="start" x="95.06" y="-131.8" font-family="Times,serif" font-size="14.00">eval</text>
<text text-anchor="start" x="70.27" y="-109" font-family="Times,serif" font-size="14.00">M0</text>
</g>
<!-- MATHDOMAIN -->
<g id="node7" class="node">
<title>MATHDOMAIN</title>
<ellipse fill="none" stroke="black" cx="80" cy="-42.8" rx="79.17" ry="18"/>
<text text-anchor="middle" x="80" y="-38.6" font-family="Times,serif" font-size="14.00">MATHDOMAIN</text>
</g>
<!-- M0&#45;&gt;MATHDOMAIN -->
<g id="edge2" class="edge">
<title>M0-&gt;MATHDOMAIN</title>
<path fill="none" stroke="black" d="M80,-96.58C80,-88.78 80,-80.23 80,-72.34"/>
<polygon fill="black" stroke="black" points="83.5,-72.54 80,-62.54 76.5,-72.54 83.5,-72.54"/>
</g>
<!-- M1 -->
<g id="node2" class="node">
<title>M1</title>
<polygon fill="none" stroke="black" points="107,-244 53,-244 53,-188.4 107,-188.4 107,-244"/>
<polygon fill="lightblue" stroke="none" points="64.1,-217.2 64.1,-238 89.89,-238 89.89,-217.2 64.1,-217.2"/>
<text text-anchor="start" x="66.1" y="-223.4" font-family="Times,serif" font-size="14.00">Sub</text>
<polygon fill="beige" stroke="none" points="91.89,-217.2 91.89,-238 95.89,-238 95.89,-217.2 91.89,-217.2"/>
<text text-anchor="start" x="70.27" y="-200.6" font-family="Times,serif" font-size="14.00">M1</text>
</g>
<!-- M1&#45;&gt;M0 -->
<g id="edge1" class="edge">
<title>M1-&gt;M0</title>
<path fill="none" stroke="black" d="M80,-188.32C80,-180.68 80,-172.21 80,-164.03"/>
<polygon fill="black" stroke="black" points="83.5,-164.29 80,-154.29 76.5,-164.29 83.5,-164.29"/>
</g>
<!-- M2 -->
<g id="node3" class="node">
<title>M2</title>
<polygon fill="none" stroke="black" points="114.82,-335.6 45.17,-335.6 45.17,-280 114.82,-280 114.82,-335.6"/>
<polygon fill="lightblue" stroke="none" points="55.17,-308.8 55.17,-329.6 59.17,-329.6 59.17,-308.8 55.17,-308.8"/>
<polygon fill="beige" stroke="none" points="61.17,-308.8 61.17,-329.6 104.82,-329.6 104.82,-308.8 61.17,-308.8"/>
<text text-anchor="start" x="63.17" y="-315" font-family="Times,serif" font-size="14.00">prettyp</text>
<text text-anchor="start" x="70.27" y="-292.2" font-family="Times,serif" font-size="14.00">M2</text>
</g>
<!-- M2&#45;&gt;M1 -->
<g id="edge6" class="edge">
<title>M2-&gt;M1</title>
<path fill="none" stroke="black" d="M80,-279.92C80,-272.28 80,-263.81 80,-255.63"/>
<polygon fill="black" stroke="black" points="83.5,-255.89 80,-245.89 76.5,-255.89 83.5,-255.89"/>
</g>
<!-- OO2 -->
<g id="node4" class="node">
<title>OO2</title>
<polygon fill="none" stroke="black" points="71.99,-427.2 0,-427.2 0,-371.6 71.99,-371.6 71.99,-427.2"/>
<polygon fill="lightblue" stroke="none" points="10,-400.4 10,-421.2 14,-421.2 14,-400.4 10,-400.4"/>
<polygon fill="beige" stroke="none" points="16,-400.4 16,-421.2 61.99,-421.2 61.99,-400.4 16,-400.4"/>
<text text-anchor="start" x="18" y="-406.6" font-family="Times,serif" font-size="14.00">insertm</text>
<text text-anchor="start" x="22.39" y="-383.8" font-family="Times,serif" font-size="14.00">OO2</text>
</g>
<!-- OO2&#45;&gt;M2 -->
<g id="edge3" class="edge">
<title>OO2-&gt;M2</title>
<path fill="none" stroke="black" d="M49.2,-371.52C53.12,-363.53 57.49,-354.63 61.68,-346.1"/>
<polygon fill="black" stroke="black" points="64.72,-347.85 65.99,-337.33 58.44,-344.77 64.72,-347.85"/>
</g>
<!-- OO1 -->
<g id="node5" class="node">
<title>OO1</title>
<polygon fill="none" stroke="black" points="158.04,-427.2 89.95,-427.2 89.95,-371.6 158.04,-371.6 158.04,-427.2"/>
<polygon fill="lightblue" stroke="none" points="99.95,-400.4 99.95,-421.2 103.95,-421.2 103.95,-400.4 99.95,-400.4"/>
<polygon fill="beige" stroke="none" points="105.95,-400.4 105.95,-421.2 148.04,-421.2 148.04,-400.4 105.95,-400.4"/>
<text text-anchor="start" x="107.95" y="-406.6" font-family="Times,serif" font-size="14.00">atomic</text>
<text text-anchor="start" x="110.39" y="-383.8" font-family="Times,serif" font-size="14.00">OO1</text>
</g>
<!-- OO1&#45;&gt;M2 -->
<g id="edge5" class="edge">
<title>OO1-&gt;M2</title>
<path fill="none" stroke="black" d="M110.8,-371.52C106.87,-363.53 102.5,-354.63 98.31,-346.1"/>
<polygon fill="black" stroke="black" points="101.56,-344.77 94.01,-337.33 95.27,-347.85 101.56,-344.77"/>
</g>
<!-- OO3 -->
<g id="node6" class="node">
<title>OO3</title>
<polygon fill="none" stroke="black" points="107,-502 53,-502 53,-463.2 107,-463.2 107,-502"/>
<polygon fill="lightblue" stroke="none" points="64.39,-492 64.39,-496 79,-496 79,-492 64.39,-492"/>
<polygon fill="beige" stroke="none" points="81,-492 81,-496 95.61,-496 95.61,-492 81,-492"/>
<text text-anchor="start" x="66.39" y="-475.4" font-family="Times,serif" font-size="14.00">OO3</text>
</g>
<!-- OO3&#45;&gt;OO2 -->
<g id="edge4" class="edge">
<title>OO3-&gt;OO2</title>
<path fill="none" stroke="black" d="M69.79,-462.77C65.7,-455.22 60.85,-446.26 56.11,-437.51"/>
<polygon fill="black" stroke="black" points="59.21,-435.89 51.37,-428.77 53.06,-439.23 59.21,-435.89"/>
</g>
<!-- OO3&#45;&gt;OO1 -->
<g id="edge7" class="edge">
<title>OO3-&gt;OO1</title>
<path fill="none" stroke="black" d="M90.2,-462.77C94.29,-455.22 99.15,-446.26 103.89,-437.51"/>
<polygon fill="black" stroke="black" points="106.94,-439.23 108.62,-428.77 100.78,-435.89 106.94,-439.23"/>
</g>
</g>
</svg>