<?xml version="1.0" encoding="UTF-8" standalone="no"?><!DOCTYPE svg PUBLIC "-//W3C//DTD SVG 1.1//EN" "http://www.w3.org/Graphics/SVG/1.1/DTD/svg11.dtd"><!-- Generated by graphviz version 2.40.1 (20161225.0304)
 --><!-- Title: G Pages: 1 --><svg xmlns="http://www.w3.org/2000/svg" xmlns:xlink="http://www.w3.org/1999/xlink" width="287pt" height="818pt" viewBox="0.00 0.00 286.99 817.80">
<g id="graph0" class="graph" transform="scale(1 1) rotate(0) translate(4 813.8)">
<title>G</title>
<polygon fill="#ffffff" stroke="transparent" points="-4,4 -4,-813.8 282.9888,-813.8 282.9888,4 -4,4"/>
<text text-anchor="middle" x="139.4944" y="-8.2" font-family="Times,serif" font-size="14.00" fill="#000000"></text>
<!-- M0 -->
<g id="node1" class="node">
<title>M0</title>
<polygon fill="none" stroke="#000000" points="231,-151.8 131,-151.8 131,-97.8 231,-97.8 231,-151.8"/>
<polygon fill="#add8e6" stroke="transparent" points="141,-125.8 141,-145.8 192,-145.8 192,-125.8 141,-125.8"/>
<text text-anchor="start" x="142.7798" y="-131.2" font-family="Times,serif" font-size="14.00" fill="#000000">Lit, Add</text>
<polygon fill="#f5f5dc" stroke="transparent" points="194,-125.8 194,-145.8 221,-145.8 221,-125.8 194,-125.8"/>
<text text-anchor="start" x="195.8401" y="-131.2" font-family="Times,serif" font-size="14.00" fill="#000000">eval</text>
<text text-anchor="start" x="171.2777" y="-109.2" font-family="Times,serif" font-size="14.00" fill="#000000">M0</text>
</g>
<!-- MATHDOMAIN -->
<g id="node11" class="node">
<title>MATHDOMAIN</title>
<ellipse fill="none" stroke="#000000" cx="181" cy="-42.8" rx="79.2942" ry="18"/>
<text text-anchor="middle" x="181" y="-38.6" font-family="Times,serif" font-size="14.00" fill="#000000">MATHDOMAIN</text>
</g>
<!-- M0&#45;&gt;MATHDOMAIN -->
<g id="edge3" class="edge">
<title>M0-&gt;MATHDOMAIN</title>
<path fill="none" stroke="#000000" d="M181,-97.4952C181,-89.1091 181,-79.8593 181,-71.3897"/>
<polygon fill="#000000" stroke="#000000" points="184.5001,-71.2024 181,-61.2024 177.5001,-71.2024 184.5001,-71.2024"/>
</g>
<!-- M1 -->
<g id="node2" class="node">
<title>M1</title>
<polygon fill="none" stroke="#000000" points="177,-242.8 123,-242.8 123,-188.8 177,-188.8 177,-242.8"/>
<polygon fill="#add8e6" stroke="transparent" points="135,-216.8 135,-236.8 160,-236.8 160,-216.8 135,-216.8"/>
<text text-anchor="start" x="136.6087" y="-222.2" font-family="Times,serif" font-size="14.00" fill="#000000">Sub</text>
<polygon fill="#f5f5dc" stroke="transparent" points="162,-216.8 162,-236.8 166,-236.8 166,-216.8 162,-216.8"/>
<text text-anchor="start" x="140.7777" y="-200.2" font-family="Times,serif" font-size="14.00" fill="#000000">M1</text>
</g>
<!-- M1&#45;&gt;M0 -->
<g id="edge2" class="edge">
<title>M1-&gt;M0</title>
<path fill="none" stroke="#000000" d="M159.301,-188.497C162.1824,-180.0388 165.406,-170.576 168.4688,-161.585"/>
<polygon fill="#000000" stroke="#000000" points="171.7939,-162.6782 171.7055,-152.0837 165.1678,-160.4209 171.7939,-162.6782"/>
</g>
<!-- M2 -->
<g id="node3" class="node">
<title>M2</title>
<polygon fill="none" stroke="#000000" points="170.5,-333.8 101.5,-333.8 101.5,-279.8 170.5,-279.8 170.5,-333.8"/>
<polygon fill="#add8e6" stroke="transparent" points="112,-307.8 112,-327.8 116,-327.8 116,-307.8 112,-307.8"/>
<polygon fill="#f5f5dc" stroke="transparent" points="118,-307.8 118,-327.8 161,-327.8 161,-307.8 118,-307.8"/>
<text text-anchor="start" x="119.6718" y="-313.2" font-family="Times,serif" font-size="14.00" fill="#000000">prettyp</text>
<text text-anchor="start" x="126.7777" y="-291.2" font-family="Times,serif" font-size="14.00" fill="#000000">M2</text>
</g>
<!-- M2&#45;&gt;M1 -->
<g id="edge7" class="edge">
<title>M2-&gt;M1</title>
<path fill="none" stroke="#000000" d="M140.2005,-279.497C141.474,-271.2187 142.8957,-261.9783 144.2524,-253.1595"/>
<polygon fill="#000000" stroke="#000000" points="147.7411,-253.4997 145.8025,-243.0837 140.8225,-252.4352 147.7411,-253.4997"/>
</g>
<!-- I1 -->
<g id="node4" class="node">
<title>I1</title>
<polygon fill="none" stroke="#000000" points="180.5,-424.8 91.5,-424.8 91.5,-370.8 180.5,-370.8 180.5,-424.8"/>
<polygon fill="#add8e6" stroke="transparent" points="102,-398.8 102,-418.8 106,-418.8 106,-398.8 102,-398.8"/>
<polygon fill="#f5f5dc" stroke="transparent" points="108,-398.8 108,-418.8 171,-418.8 171,-398.8 108,-398.8"/>
<text text-anchor="start" x="109.9362" y="-405.2" font-family="Times,serif" font-size="14.00" fill="#000000">multBy</text>
<text text-anchor="start" x="151.9446" y="-405.2" font-family="Times,serif" baseline-shift="sub" font-size="14.00" fill="#000000">BP</text>
<text text-anchor="start" x="130.6697" y="-382.2" font-family="Times,serif" font-size="14.00" fill="#000000">I1</text>
</g>
<!-- I1&#45;&gt;M2 -->
<g id="edge6" class="edge">
<title>I1-&gt;M2</title>
<path fill="none" stroke="#000000" d="M136,-370.497C136,-362.2187 136,-352.9783 136,-344.1595"/>
<polygon fill="#000000" stroke="#000000" points="139.5001,-344.0837 136,-334.0837 132.5001,-344.0838 139.5001,-344.0837"/>
</g>
<!-- M3 -->
<g id="node5" class="node">
<title>M3</title>
<polygon fill="none" stroke="#000000" points="122,-496.8 0,-496.8 0,-442.8 122,-442.8 122,-496.8"/>
<polygon fill="#add8e6" stroke="transparent" points="10,-470.8 10,-490.8 106,-490.8 106,-470.8 10,-470.8"/>
<text text-anchor="start" x="11.7279" y="-476.2" font-family="Times,serif" font-size="14.00" fill="#000000">Neg, Mult, Divd</text>
<polygon fill="#f5f5dc" stroke="transparent" points="108,-470.8 108,-490.8 112,-490.8 112,-470.8 108,-470.8"/>
<text text-anchor="start" x="51.2777" y="-454.2" font-family="Times,serif" font-size="14.00" fill="#000000">M3</text>
</g>
<!-- M3&#45;&gt;M2 -->
<g id="edge12" class="edge">
<title>M3-&gt;M2</title>
<path fill="none" stroke="#000000" d="M63.1577,-442.5834C65.6278,-422.0106 70.8827,-393.5273 82,-370.8 86.9886,-360.6016 93.9588,-350.6697 101.2373,-341.7906"/>
<polygon fill="#000000" stroke="#000000" points="104.1049,-343.8234 107.9603,-333.955 98.7923,-339.2652 104.1049,-343.8234"/>
</g>
<!-- A1 -->
<g id="node6" class="node">
<title>A1</title>
<polygon fill="none" stroke="#000000" points="157,-568.8 93,-568.8 93,-514.8 157,-514.8 157,-568.8"/>
<polygon fill="#add8e6" stroke="transparent" points="103,-542.8 103,-562.8 141,-562.8 141,-542.8 103,-542.8"/>
<text text-anchor="start" x="104.5035" y="-548.2" font-family="Times,serif" font-size="14.00" fill="#000000">Times</text>
<polygon fill="#f5f5dc" stroke="transparent" points="143,-542.8 143,-562.8 147,-562.8 147,-542.8 143,-542.8"/>
<text text-anchor="start" x="116.4467" y="-526.2" font-family="Times,serif" font-size="14.00" fill="#000000">A1</text>
</g>
<!-- A1&#45;&gt;I1 -->
<g id="edge5" class="edge">
<title>A1-&gt;I1</title>
<path fill="none" stroke="#000000" d="M127.069,-514.7147C128.7789,-492.3305 131.2255,-460.3029 133.1257,-435.4275"/>
<polygon fill="#000000" stroke="#000000" points="136.6309,-435.491 133.9029,-425.2534 129.6513,-434.9578 136.6309,-435.491"/>
</g>
<!-- A1M3 -->
<g id="node7" class="node">
<title>A1M3</title>
<polygon fill="none" stroke="#000000" points="156,-643.8 94,-643.8 94,-605.8 156,-605.8 156,-643.8"/>
<polygon fill="#add8e6" stroke="transparent" points="104,-633.8 104,-637.8 124,-637.8 124,-633.8 104,-633.8"/>
<polygon fill="#f5f5dc" stroke="transparent" points="126,-633.8 126,-637.8 146,-637.8 146,-633.8 126,-633.8"/>
<text text-anchor="start" x="106.7244" y="-617.2" font-family="Times,serif" font-size="14.00" fill="#000000">A1M3</text>
</g>
<!-- A1M3&#45;&gt;M3 -->
<g id="edge10" class="edge">
<title>A1M3-&gt;M3</title>
<path fill="none" stroke="#000000" d="M107.892,-605.561C99.5716,-595.2871 90.0795,-582.0518 84,-568.8 75.0603,-549.3138 69.4255,-526.0241 65.9722,-506.9306"/>
<polygon fill="#000000" stroke="#000000" points="69.3797,-506.0875 64.271,-496.8057 62.4764,-507.2474 69.3797,-506.0875"/>
</g>
<!-- A1M3&#45;&gt;A1 -->
<g id="edge11" class="edge">
<title>A1M3-&gt;A1</title>
<path fill="none" stroke="#000000" d="M125,-605.5495C125,-597.6164 125,-588.1433 125,-578.9572"/>
<polygon fill="#000000" stroke="#000000" points="128.5001,-578.805 125,-568.8051 121.5001,-578.8051 128.5001,-578.805"/>
</g>
<!-- I2 -->
<g id="node8" class="node">
<title>I2</title>
<polygon fill="none" stroke="#000000" points="240.5,-568.8 175.5,-568.8 175.5,-514.8 240.5,-514.8 240.5,-568.8"/>
<polygon fill="#add8e6" stroke="transparent" points="186,-542.8 186,-562.8 225,-562.8 225,-542.8 186,-542.8"/>
<text text-anchor="start" x="187.6178" y="-548.2" font-family="Times,serif" font-size="14.00" fill="#000000">Power</text>
<polygon fill="#f5f5dc" stroke="transparent" points="227,-542.8 227,-562.8 231,-562.8 231,-542.8 227,-542.8"/>
<text text-anchor="start" x="202.6697" y="-526.2" font-family="Times,serif" font-size="14.00" fill="#000000">I2</text>
</g>
<!-- I2&#45;&gt;M0 -->
<g id="edge13" class="edge">
<title>I2-&gt;M0</title>
<path fill="none" stroke="#c0c0c0" stroke-dasharray="5,2" d="M208.3,-514.7294C208.5946,-485.7873 209,-438.551 209,-397.8 209,-397.8 209,-397.8 209,-215.8 209,-197.4573 203.7389,-177.918 197.7777,-161.6661"/>
<polygon fill="#c0c0c0" stroke="#c0c0c0" points="200.9079,-160.059 194.0163,-152.0118 194.3854,-162.6002 200.9079,-160.059"/>
<text text-anchor="start" x="209" y="-302.6" font-family="Times,serif" font-size="14.00" fill="#000000">multBy-eval</text>
</g>
<!-- I2&#45;&gt;I1 -->
<g id="edge1" class="edge">
<title>I2-&gt;I1</title>
<path fill="none" stroke="#000000" d="M194.4574,-514.7147C183.1153,-492.0307 166.8217,-459.4433 154.316,-434.4319"/>
<polygon fill="#000000" stroke="#000000" points="157.3294,-432.6325 149.7267,-425.2534 151.0684,-435.763 157.3294,-432.6325"/>
</g>
<!-- A1M3I2 -->
<g id="node9" class="node">
<title>A1M3I2</title>
<polygon fill="none" stroke="#000000" points="197,-718.8 123,-718.8 123,-680.8 197,-680.8 197,-718.8"/>
<polygon fill="#add8e6" stroke="transparent" points="133,-708.8 133,-712.8 159,-712.8 159,-708.8 133,-708.8"/>
<polygon fill="#f5f5dc" stroke="transparent" points="161,-708.8 161,-712.8 187,-712.8 187,-708.8 161,-708.8"/>
<text text-anchor="start" x="135.8941" y="-692.2" font-family="Times,serif" font-size="14.00" fill="#000000">A1M3I2</text>
</g>
<!-- A1M3I2&#45;&gt;A1M3 -->
<g id="edge8" class="edge">
<title>A1M3I2-&gt;A1M3</title>
<path fill="none" stroke="#000000" d="M150.9866,-680.4856C147.1082,-672.1748 142.496,-662.2915 138.2414,-653.1745"/>
<polygon fill="#000000" stroke="#000000" points="141.3834,-651.6306 133.9828,-644.0489 135.0401,-654.5909 141.3834,-651.6306"/>
</g>
<!-- A1M3I2&#45;&gt;I2 -->
<g id="edge9" class="edge">
<title>A1M3I2-&gt;I2</title>
<path fill="none" stroke="#000000" d="M165.7899,-680.7415C173.4398,-655.5607 187.0776,-610.6694 196.7806,-578.7306"/>
<polygon fill="#000000" stroke="#000000" points="200.2221,-579.4429 199.7801,-568.8573 193.5243,-577.4081 200.2221,-579.4429"/>
</g>
<!-- A3 -->
<g id="node10" class="node">
<title>A3</title>
<polygon fill="none" stroke="#000000" points="187,-809.8 133,-809.8 133,-755.8 187,-755.8 187,-809.8"/>
<polygon fill="#add8e6" stroke="transparent" points="146,-783.8 146,-803.8 168,-803.8 168,-783.8 146,-783.8"/>
<text text-anchor="start" x="147.6697" y="-789.2" font-family="Times,serif" font-size="14.00" fill="#000000">Inv</text>
<polygon fill="#f5f5dc" stroke="transparent" points="170,-783.8 170,-803.8 174,-803.8 174,-783.8 170,-783.8"/>
<text text-anchor="start" x="151.4467" y="-767.2" font-family="Times,serif" font-size="14.00" fill="#000000">A3</text>
</g>
<!-- A3&#45;&gt;A1M3I2 -->
<g id="edge4" class="edge">
<title>A3-&gt;A1M3I2</title>
<path fill="none" stroke="#000000" d="M160,-755.6227C160,-747.0853 160,-737.6262 160,-728.9575"/>
<polygon fill="#000000" stroke="#000000" points="163.5001,-728.8907 160,-718.8907 156.5001,-728.8907 163.5001,-728.8907"/>
</g>
</g>
</svg>