<?xml version="1.0" encoding="UTF-8" standalone="no"?><!DOCTYPE svg PUBLIC "-//W3C//DTD SVG 1.1//EN" "http://www.w3.org/Graphics/SVG/1.1/DTD/svg11.dtd"><!-- Generated by graphviz version 2.40.1 (20161225.0304)
 --><!-- Title: G Pages: 1 --><svg xmlns="http://www.w3.org/2000/svg" xmlns:xlink="http://www.w3.org/1999/xlink" width="364pt" height="599pt" viewBox="0.00 0.00 363.99 598.80">
<g id="graph0" class="graph" transform="scale(1 1) rotate(0) translate(4 594.8)">
<title>G</title>
<polygon fill="#ffffff" stroke="transparent" points="-4,4 -4,-594.8 359.9888,-594.8 359.9888,4 -4,4"/>
<text text-anchor="middle" x="177.9944" y="-8.2" font-family="Times,serif" font-size="14.00" fill="#000000"></text>
<!-- M0 -->
<g id="node1" class="node">
<title>M0</title>
<polygon fill="none" stroke="#000000" points="217,-151.8 117,-151.8 117,-97.8 217,-97.8 217,-151.8"/>
<polygon fill="#add8e6" stroke="transparent" points="127,-125.8 127,-145.8 178,-145.8 178,-125.8 127,-125.8"/>
<text text-anchor="start" x="128.7798" y="-131.2" font-family="Times,serif" font-size="14.00" fill="#000000">Lit, Add</text>
<polygon fill="#f5f5dc" stroke="transparent" points="180,-125.8 180,-145.8 207,-145.8 207,-125.8 180,-125.8"/>
<text text-anchor="start" x="181.8401" y="-131.2" font-family="Times,serif" font-size="14.00" fill="#000000">eval</text>
<text text-anchor="start" x="157.2777" y="-109.2" font-family="Times,serif" font-size="14.00" fill="#000000">M0</text>
</g>
<!-- MATHDOMAIN -->
<g id="node10" class="node">
<title>MATHDOMAIN</title>
<ellipse fill="none" stroke="#000000" cx="167" cy="-42.8" rx="79.2942" ry="18"/>
<text text-anchor="middle" x="167" y="-38.6" font-family="Times,serif" font-size="14.00" fill="#000000">MATHDOMAIN</text>
</g>
<!-- M0&#45;&gt;MATHDOMAIN -->
<g id="edge4" class="edge">
<title>M0-&gt;MATHDOMAIN</title>
<path fill="none" stroke="#000000" d="M167,-97.4952C167,-89.1091 167,-79.8593 167,-71.3897"/>
<polygon fill="#000000" stroke="#000000" points="170.5001,-71.2024 167,-61.2024 163.5001,-71.2024 170.5001,-71.2024"/>
</g>
<!-- M1 -->
<g id="node2" class="node">
<title>M1</title>
<polygon fill="none" stroke="#000000" points="194,-242.8 140,-242.8 140,-188.8 194,-188.8 194,-242.8"/>
<polygon fill="#add8e6" stroke="transparent" points="152,-216.8 152,-236.8 177,-236.8 177,-216.8 152,-216.8"/>
<text text-anchor="start" x="153.6087" y="-222.2" font-family="Times,serif" font-size="14.00" fill="#000000">Sub</text>
<polygon fill="#f5f5dc" stroke="transparent" points="179,-216.8 179,-236.8 183,-236.8 183,-216.8 179,-216.8"/>
<text text-anchor="start" x="157.7777" y="-200.2" font-family="Times,serif" font-size="14.00" fill="#000000">M1</text>
</g>
<!-- M1&#45;&gt;M0 -->
<g id="edge3" class="edge">
<title>M1-&gt;M0</title>
<path fill="none" stroke="#000000" d="M167,-188.497C167,-180.2187 167,-170.9783 167,-162.1595"/>
<polygon fill="#000000" stroke="#000000" points="170.5001,-162.0837 167,-152.0837 163.5001,-162.0838 170.5001,-162.0837"/>
</g>
<!-- M2 -->
<g id="node3" class="node">
<title>M2</title>
<polygon fill="none" stroke="#000000" points="201.5,-333.8 132.5,-333.8 132.5,-279.8 201.5,-279.8 201.5,-333.8"/>
<polygon fill="#add8e6" stroke="transparent" points="143,-307.8 143,-327.8 147,-327.8 147,-307.8 143,-307.8"/>
<polygon fill="#f5f5dc" stroke="transparent" points="149,-307.8 149,-327.8 192,-327.8 192,-307.8 149,-307.8"/>
<text text-anchor="start" x="150.6718" y="-313.2" font-family="Times,serif" font-size="14.00" fill="#000000">prettyp</text>
<text text-anchor="start" x="157.7777" y="-291.2" font-family="Times,serif" font-size="14.00" fill="#000000">M2</text>
</g>
<!-- M2&#45;&gt;M1 -->
<g id="edge8" class="edge">
<title>M2-&gt;M1</title>
<path fill="none" stroke="#000000" d="M167,-279.497C167,-271.2187 167,-261.9783 167,-253.1595"/>
<polygon fill="#000000" stroke="#000000" points="170.5001,-253.0837 167,-243.0837 163.5001,-253.0838 170.5001,-253.0837"/>
</g>
<!-- M3 -->
<g id="node4" class="node">
<title>M3</title>
<polygon fill="none" stroke="#000000" points="150,-424.8 28,-424.8 28,-370.8 150,-370.8 150,-424.8"/>
<polygon fill="#add8e6" stroke="transparent" points="38,-398.8 38,-418.8 134,-418.8 134,-398.8 38,-398.8"/>
<text text-anchor="start" x="39.7279" y="-404.2" font-family="Times,serif" font-size="14.00" fill="#000000">Neg, Mult, Divd</text>
<polygon fill="#f5f5dc" stroke="transparent" points="136,-398.8 136,-418.8 140,-418.8 140,-398.8 136,-398.8"/>
<text text-anchor="start" x="79.2777" y="-382.2" font-family="Times,serif" font-size="14.00" fill="#000000">M3</text>
</g>
<!-- M3&#45;&gt;M2 -->
<g id="edge12" class="edge">
<title>M3-&gt;M2</title>
<path fill="none" stroke="#000000" d="M112.4026,-370.497C120.1153,-361.4989 128.8023,-351.3639 136.9405,-341.8695"/>
<polygon fill="#000000" stroke="#000000" points="139.7634,-343.9541 143.6139,-334.0837 134.4486,-339.3985 139.7634,-343.9541"/>
</g>
<!-- I1 -->
<g id="node5" class="node">
<title>I1</title>
<polygon fill="none" stroke="#000000" points="257.5,-424.8 168.5,-424.8 168.5,-370.8 257.5,-370.8 257.5,-424.8"/>
<polygon fill="#add8e6" stroke="transparent" points="179,-398.8 179,-418.8 183,-418.8 183,-398.8 179,-398.8"/>
<polygon fill="#f5f5dc" stroke="transparent" points="185,-398.8 185,-418.8 248,-418.8 248,-398.8 185,-398.8"/>
<text text-anchor="start" x="186.9362" y="-405.2" font-family="Times,serif" font-size="14.00" fill="#000000">multBy</text>
<text text-anchor="start" x="228.9446" y="-405.2" font-family="Times,serif" baseline-shift="sub" font-size="14.00" fill="#000000">BP</text>
<text text-anchor="start" x="207.6697" y="-382.2" font-family="Times,serif" font-size="14.00" fill="#000000">I1</text>
</g>
<!-- I1&#45;&gt;M2 -->
<g id="edge7" class="edge">
<title>I1-&gt;M2</title>
<path fill="none" stroke="#000000" d="M199.1985,-370.497C194.8319,-361.8588 189.9358,-352.1729 185.3048,-343.0118"/>
<polygon fill="#000000" stroke="#000000" points="188.4268,-341.4293 180.7918,-334.0837 182.1795,-344.5873 188.4268,-341.4293"/>
</g>
<!-- M3I1 -->
<g id="node6" class="node">
<title>M3I1</title>
<polygon fill="none" stroke="#000000" points="174.5,-507.8 117.5,-507.8 117.5,-469.8 174.5,-469.8 174.5,-507.8"/>
<polygon fill="#add8e6" stroke="transparent" points="128,-497.8 128,-501.8 145,-501.8 145,-497.8 128,-497.8"/>
<polygon fill="#f5f5dc" stroke="transparent" points="147,-497.8 147,-501.8 165,-501.8 165,-497.8 147,-497.8"/>
<text text-anchor="start" x="130.9474" y="-481.2" font-family="Times,serif" font-size="14.00" fill="#000000">M3I1</text>
</g>
<!-- M3I1&#45;&gt;M3 -->
<g id="edge10" class="edge">
<title>M3I1-&gt;M3</title>
<path fill="none" stroke="#000000" d="M133.9118,-469.5012C127.3902,-459.0896 119.1294,-445.9013 111.476,-433.6827"/>
<polygon fill="#000000" stroke="#000000" points="114.3185,-431.6274 106.044,-425.0105 108.3862,-435.3432 114.3185,-431.6274"/>
</g>
<!-- M3I1&#45;&gt;I1 -->
<g id="edge2" class="edge">
<title>M3I1-&gt;I1</title>
<path fill="none" stroke="#000000" d="M160.209,-469.5012C167.9491,-458.9885 177.7735,-445.645 186.8427,-433.3271"/>
<polygon fill="#000000" stroke="#000000" points="189.8553,-435.1385 192.9659,-425.0105 184.2184,-430.9882 189.8553,-435.1385"/>
</g>
<!-- I2 -->
<g id="node7" class="node">
<title>I2</title>
<polygon fill="none" stroke="#000000" points="257.5,-515.8 192.5,-515.8 192.5,-461.8 257.5,-461.8 257.5,-515.8"/>
<polygon fill="#add8e6" stroke="transparent" points="203,-489.8 203,-509.8 242,-509.8 242,-489.8 203,-489.8"/>
<text text-anchor="start" x="204.6178" y="-495.2" font-family="Times,serif" font-size="14.00" fill="#000000">Power</text>
<polygon fill="#f5f5dc" stroke="transparent" points="244,-489.8 244,-509.8 248,-509.8 248,-489.8 244,-489.8"/>
<text text-anchor="start" x="219.6697" y="-473.2" font-family="Times,serif" font-size="14.00" fill="#000000">I2</text>
</g>
<!-- I2&#45;&gt;M0 -->
<g id="edge14" class="edge">
<title>I2-&gt;M0</title>
<path fill="none" stroke="#c0c0c0" stroke-dasharray="5,2" d="M255.5,-461.5589C270.75,-444.8953 286,-422.1453 286,-397.8 286,-397.8 286,-397.8 286,-215.8 286,-182.4487 256.141,-159.6764 226.3366,-145.2531"/>
<polygon fill="#c0c0c0" stroke="#c0c0c0" points="227.6719,-142.0152 217.1218,-141.0424 224.7626,-148.382 227.6719,-142.0152"/>
<text text-anchor="start" x="286" y="-302.6" font-family="Times,serif" font-size="14.00" fill="#000000">multBy-eval</text>
</g>
<!-- I2&#45;&gt;I1 -->
<g id="edge1" class="edge">
<title>I2-&gt;I1</title>
<path fill="none" stroke="#000000" d="M221.3996,-461.497C220.308,-453.2187 219.0894,-443.9783 217.9265,-435.1595"/>
<polygon fill="#000000" stroke="#000000" points="221.3753,-434.5403 216.5979,-425.0837 214.4353,-435.4555 221.3753,-434.5403"/>
</g>
<!-- N1 -->
<g id="node8" class="node">
<title>N1</title>
<polygon fill="none" stroke="#000000" points="99.5,-515.8 12.5,-515.8 12.5,-461.8 99.5,-461.8 99.5,-515.8"/>
<polygon fill="#add8e6" stroke="transparent" points="23,-489.8 23,-509.8 27,-509.8 27,-489.8 23,-489.8"/>
<polygon fill="#f5f5dc" stroke="transparent" points="29,-489.8 29,-509.8 90,-509.8 90,-489.8 29,-489.8"/>
<text text-anchor="start" x="30.7188" y="-496.2" font-family="Times,serif" font-size="14.00" fill="#000000">powBy</text>
<text text-anchor="start" x="71.162" y="-496.2" font-family="Times,serif" baseline-shift="sub" font-size="14.00" fill="#000000">BP</text>
<text text-anchor="start" x="47.9467" y="-473.2" font-family="Times,serif" font-size="14.00" fill="#000000">N1</text>
</g>
<!-- N1&#45;&gt;M0 -->
<g id="edge13" class="edge">
<title>N1-&gt;M0</title>
<path fill="none" stroke="#c0c0c0" stroke-dasharray="5,2" d="M28.3281,-461.5014C14.2196,-444.6499 0,-421.73 0,-397.8 0,-397.8 0,-397.8 0,-215.8 0,-165.5545 59.0103,-142.8892 106.8751,-132.7693"/>
<polygon fill="#c0c0c0" stroke="#c0c0c0" points="107.7599,-136.1623 116.8945,-130.7948 106.4064,-129.2944 107.7599,-136.1623"/>
<text text-anchor="start" x="0" y="-302.6" font-family="Times,serif" font-size="14.00" fill="#000000">powBy-eval</text>
</g>
<!-- N1&#45;&gt;M3 -->
<g id="edge11" class="edge">
<title>N1-&gt;M3</title>
<path fill="none" stroke="#000000" d="M65.9011,-461.497C68.9684,-453.0388 72.3999,-443.576 75.6604,-434.585"/>
<polygon fill="#000000" stroke="#000000" points="78.987,-435.6779 79.1059,-425.0837 72.4064,-433.2915 78.987,-435.6779"/>
</g>
<!-- I2M3I1N1 -->
<g id="node9" class="node">
<title>I2M3I1N1</title>
<polygon fill="none" stroke="#000000" points="188.5,-590.8 103.5,-590.8 103.5,-552.8 188.5,-552.8 188.5,-590.8"/>
<polygon fill="#add8e6" stroke="transparent" points="114,-580.8 114,-584.8 145,-584.8 145,-580.8 114,-580.8"/>
<polygon fill="#f5f5dc" stroke="transparent" points="147,-580.8 147,-584.8 179,-584.8 179,-580.8 147,-580.8"/>
<text text-anchor="start" x="116.5638" y="-564.2" font-family="Times,serif" font-size="14.00" fill="#000000">I2M3I1N1</text>
</g>
<!-- I2M3I1N1&#45;&gt;M3I1 -->
<g id="edge6" class="edge">
<title>I2M3I1N1-&gt;M3I1</title>
<path fill="none" stroke="#000000" d="M146,-552.5495C146,-542.2834 146,-529.4381 146,-517.9733"/>
<polygon fill="#000000" stroke="#000000" points="149.5001,-517.9461 146,-507.9461 142.5001,-517.9461 149.5001,-517.9461"/>
</g>
<!-- I2M3I1N1&#45;&gt;I2 -->
<g id="edge5" class="edge">
<title>I2M3I1N1-&gt;I2</title>
<path fill="none" stroke="#000000" d="M164.3228,-552.5495C172.6042,-543.8487 182.649,-533.2954 192.1627,-523.3"/>
<polygon fill="#000000" stroke="#000000" points="194.9372,-525.4616 199.2964,-515.8051 189.8668,-520.6355 194.9372,-525.4616"/>
</g>
<!-- I2M3I1N1&#45;&gt;N1 -->
<g id="edge9" class="edge">
<title>I2M3I1N1-&gt;N1</title>
<path fill="none" stroke="#000000" d="M125.126,-552.5495C115.5064,-543.6781 103.7985,-532.8808 92.7728,-522.7127"/>
<polygon fill="#000000" stroke="#000000" points="95.0066,-520.0116 85.2826,-515.8051 90.261,-525.1574 95.0066,-520.0116"/>
</g>
</g>
</svg>