<?xml version="1.0" encoding="UTF-8" standalone="no"?><!DOCTYPE svg PUBLIC "-//W3C//DTD SVG 1.1//EN" "http://www.w3.org/Graphics/SVG/1.1/DTD/svg11.dtd"><!-- Generated by graphviz version 2.40.1 (20161225.0304)
 --><!-- Title: G Pages: 1 --><svg xmlns="http://www.w3.org/2000/svg" xmlns:xlink="http://www.w3.org/1999/xlink" width="166pt" height="503pt" viewBox="0.00 0.00 166.29 502.80">
<g id="graph0" class="graph" transform="scale(1 1) rotate(0) translate(4 498.8)">
<title>G</title>
<polygon fill="#ffffff" stroke="transparent" points="-4,4 -4,-498.8 162.2939,-498.8 162.2939,4 -4,4"/>
<text text-anchor="middle" x="79.1469" y="-8.2" font-family="Times,serif" font-size="14.00" fill="#000000"></text>
<!-- M0 -->
<g id="node1" class="node">
<title>M0</title>
<polygon fill="none" stroke="#000000" points="129.1469,-150.8 29.1469,-150.8 29.1469,-96.8 129.1469,-96.8 129.1469,-150.8"/>
<polygon fill="#add8e6" stroke="transparent" points="39.1469,-124.8 39.1469,-144.8 90.1469,-144.8 90.1469,-124.8 39.1469,-124.8"/>
<text text-anchor="start" x="40.9267" y="-130.2" font-family="Times,serif" font-size="14.00" fill="#000000">Lit, Add</text>
<polygon fill="#f5f5dc" stroke="transparent" points="92.1469,-124.8 92.1469,-144.8 119.1469,-144.8 119.1469,-124.8 92.1469,-124.8"/>
<text text-anchor="start" x="93.987" y="-130.2" font-family="Times,serif" font-size="14.00" fill="#000000">eval</text>
<text text-anchor="start" x="69.4246" y="-108.2" font-family="Times,serif" font-size="14.00" fill="#000000">M0</text>
</g>
<!-- MATHDOMAIN -->
<g id="node7" class="node">
<title>MATHDOMAIN</title>
<ellipse fill="none" stroke="#000000" cx="79.1469" cy="-42.8" rx="79.2942" ry="18"/>
<text text-anchor="middle" x="79.1469" y="-38.6" font-family="Times,serif" font-size="14.00" fill="#000000">MATHDOMAIN</text>
</g>
<!-- M0&#45;&gt;MATHDOMAIN -->
<g id="edge2" class="edge">
<title>M0-&gt;MATHDOMAIN</title>
<path fill="none" stroke="#000000" d="M79.1469,-96.3771C79.1469,-88.3353 79.1469,-79.5228 79.1469,-71.4091"/>
<polygon fill="#000000" stroke="#000000" points="82.647,-71.2688 79.1469,-61.2688 75.647,-71.2689 82.647,-71.2688"/>
</g>
<!-- X1 -->
<g id="node2" class="node">
<title>X1</title>
<polygon fill="none" stroke="#000000" points="157.1469,-240.8 1.1469,-240.8 1.1469,-186.8 157.1469,-186.8 157.1469,-240.8"/>
<polygon fill="#add8e6" stroke="transparent" points="11.1469,-214.8 11.1469,-234.8 36.1469,-234.8 36.1469,-214.8 11.1469,-214.8"/>
<text text-anchor="start" x="12.7556" y="-220.2" font-family="Times,serif" font-size="14.00" fill="#000000">Sub</text>
<polygon fill="#f5f5dc" stroke="transparent" points="38.1469,-214.8 38.1469,-234.8 147.1469,-234.8 147.1469,-214.8 38.1469,-214.8"/>
<text text-anchor="start" x="39.7549" y="-221.2" font-family="Times,serif" font-size="14.00" fill="#000000">prettyp, multBy</text>
<text text-anchor="start" x="128.4197" y="-221.2" font-family="Times,serif" baseline-shift="sub" font-size="14.00" fill="#000000">BP</text>
<text text-anchor="start" x="70.5936" y="-198.2" font-family="Times,serif" font-size="14.00" fill="#000000">X1</text>
</g>
<!-- X1&#45;&gt;M0 -->
<g id="edge5" class="edge">
<title>X1-&gt;M0</title>
<path fill="none" stroke="#000000" d="M79.1469,-186.797C79.1469,-178.7723 79.1469,-169.8335 79.1469,-161.2691"/>
<polygon fill="#000000" stroke="#000000" points="82.647,-161.0949 79.1469,-151.095 75.647,-161.095 82.647,-161.0949"/>
</g>
<!-- X2 -->
<g id="node3" class="node">
<title>X2</title>
<polygon fill="none" stroke="#000000" points="72.1469,-330.8 8.1469,-330.8 8.1469,-276.8 72.1469,-276.8 72.1469,-330.8"/>
<polygon fill="#add8e6" stroke="transparent" points="18.1469,-304.8 18.1469,-324.8 56.1469,-324.8 56.1469,-304.8 18.1469,-304.8"/>
<text text-anchor="start" x="19.6504" y="-310.2" font-family="Times,serif" font-size="14.00" fill="#000000">Times</text>
<polygon fill="#f5f5dc" stroke="transparent" points="58.1469,-304.8 58.1469,-324.8 62.1469,-324.8 62.1469,-304.8 58.1469,-304.8"/>
<text text-anchor="start" x="31.5936" y="-288.2" font-family="Times,serif" font-size="14.00" fill="#000000">X2</text>
</g>
<!-- X2&#45;&gt;X1 -->
<g id="edge1" class="edge">
<title>X2-&gt;X1</title>
<path fill="none" stroke="#000000" d="M51.8482,-276.797C55.4402,-268.5078 59.4549,-259.2431 63.2768,-250.4234"/>
<polygon fill="#000000" stroke="#000000" points="66.5544,-251.6622 67.3191,-241.095 60.1315,-248.8789 66.5544,-251.6622"/>
</g>
<!-- X3 -->
<g id="node4" class="node">
<title>X3</title>
<polygon fill="none" stroke="#000000" points="147.6469,-330.8 90.6469,-330.8 90.6469,-276.8 147.6469,-276.8 147.6469,-330.8"/>
<polygon fill="#add8e6" stroke="transparent" points="101.1469,-304.8 101.1469,-324.8 132.1469,-324.8 132.1469,-304.8 101.1469,-304.8"/>
<text text-anchor="start" x="102.6483" y="-310.2" font-family="Times,serif" font-size="14.00" fill="#000000">Divd</text>
<polygon fill="#f5f5dc" stroke="transparent" points="134.1469,-304.8 134.1469,-324.8 138.1469,-324.8 138.1469,-304.8 134.1469,-304.8"/>
<text text-anchor="start" x="111.0936" y="-288.2" font-family="Times,serif" font-size="14.00" fill="#000000">X3</text>
</g>
<!-- X3&#45;&gt;X1 -->
<g id="edge6" class="edge">
<title>X3-&gt;X1</title>
<path fill="none" stroke="#000000" d="M107.1456,-276.797C103.4615,-268.5078 99.3439,-259.2431 95.424,-250.4234"/>
<polygon fill="#000000" stroke="#000000" points="98.5378,-248.8116 91.278,-241.095 92.1411,-251.6546 98.5378,-248.8116"/>
</g>
<!-- X2X3 -->
<g id="node5" class="node">
<title>X2X3</title>
<polygon fill="none" stroke="#000000" points="109.1469,-404.8 49.1469,-404.8 49.1469,-366.8 109.1469,-366.8 109.1469,-404.8"/>
<polygon fill="#add8e6" stroke="transparent" points="59.1469,-394.8 59.1469,-398.8 78.1469,-398.8 78.1469,-394.8 59.1469,-394.8"/>
<polygon fill="#f5f5dc" stroke="transparent" points="80.1469,-394.8 80.1469,-398.8 99.1469,-398.8 99.1469,-394.8 80.1469,-394.8"/>
<text text-anchor="start" x="62.0403" y="-378.2" font-family="Times,serif" font-size="14.00" fill="#000000">X2X3</text>
</g>
<!-- X2X3&#45;&gt;X2 -->
<g id="edge7" class="edge">
<title>X2X3-&gt;X2</title>
<path fill="none" stroke="#000000" d="M70.1015,-366.7814C66.3606,-358.9159 61.8908,-349.5179 57.5599,-340.4119"/>
<polygon fill="#000000" stroke="#000000" points="60.5892,-338.6322 53.1334,-331.1048 54.2678,-341.6388 60.5892,-338.6322"/>
</g>
<!-- X2X3&#45;&gt;X3 -->
<g id="edge3" class="edge">
<title>X2X3-&gt;X3</title>
<path fill="none" stroke="#000000" d="M88.4243,-366.7814C92.3015,-358.8331 96.9421,-349.3198 101.4277,-340.1245"/>
<polygon fill="#000000" stroke="#000000" points="104.5889,-341.627 105.8275,-331.1048 98.2975,-338.558 104.5889,-341.627"/>
</g>
<!-- X4 -->
<g id="node6" class="node">
<title>X4</title>
<polygon fill="none" stroke="#000000" points="106.1469,-494.8 52.1469,-494.8 52.1469,-440.8 106.1469,-440.8 106.1469,-494.8"/>
<polygon fill="#add8e6" stroke="transparent" points="63.1469,-468.8 63.1469,-488.8 90.1469,-488.8 90.1469,-468.8 63.1469,-468.8"/>
<text text-anchor="start" x="64.9863" y="-474.2" font-family="Times,serif" font-size="14.00" fill="#000000">Neg</text>
<polygon fill="#f5f5dc" stroke="transparent" points="92.1469,-468.8 92.1469,-488.8 96.1469,-488.8 96.1469,-468.8 92.1469,-468.8"/>
<text text-anchor="start" x="71.0936" y="-452.2" font-family="Times,serif" font-size="14.00" fill="#000000">X4</text>
</g>
<!-- X4&#45;&gt;X2X3 -->
<g id="edge4" class="edge">
<title>X4-&gt;X2X3</title>
<path fill="none" stroke="#000000" d="M79.1469,-440.4952C79.1469,-432.3056 79.1469,-423.2924 79.1469,-414.9865"/>
<polygon fill="#000000" stroke="#000000" points="82.647,-414.959 79.1469,-404.959 75.647,-414.9591 82.647,-414.959"/>
</g>
</g>
</svg>